M48
;Layer_Color=9474304
;FILE_FORMAT=2:5
INCH,LZ
;TYPE=PLATED
T1F00S00C0.01181
T2F00S00C0.03543
T3F00S00C0.03937
T4F00S00C0.04016
T5F00S00C0.04724
T6F00S00C0.05118
T7F00S00C0.05512
;TYPE=NON_PLATED
T8F00S00C0.11811
%
T01
X0183661Y0004921
Y0026181
X0200197Y0017126
X0223425Y0012008
X0219488Y0046654
X0169882Y0076968
X0067716Y0087402
T02
X0236417Y0055315
Y0065158
Y0075
X0239961Y0105709
X0230118
X0220276
X0210433
X0157677Y0103642
X0147835
X0137992
X0086024
X0076181
X0066339
T03
X0021063Y003622
Y0046063
X0052913Y0051378
X0062756
X0234842Y0016535
X0244685
T04
X0015157Y0085551
X0025157
Y0095551
Y0105551
Y0115551
Y0125551
X0015157
Y0115551
Y0105551
Y0095551
T05
X0112347Y0015453
X012219
X0149175
X0159018
T06
X004626Y001565
X006626
X0276575Y0015
Y0035
Y0064944
Y0084944
Y0104944
X0168228Y0139173
X0148228
X0128228
X0095787
X0075787
X0055787
T07
X0217598Y0138458
X0237598
X0257598
X0197598
T08
X0013189Y0012008
X0280906Y0143898
M30
