G04*
G04 #@! TF.GenerationSoftware,Altium Limited,Altium Designer,20.1.8 (145)*
G04*
G04 Layer_Physical_Order=2*
G04 Layer_Color=16711680*
%FSLAX25Y25*%
%MOIN*%
G70*
G04*
G04 #@! TF.SameCoordinates,19D57B75-9579-4F69-8231-0EC3C90D2157*
G04*
G04*
G04 #@! TF.FilePolarity,Positive*
G04*
G01*
G75*
%ADD42R,0.05512X0.05512*%
%ADD43C,0.05512*%
%ADD45R,0.05512X0.05512*%
%ADD46C,0.01000*%
%ADD47C,0.01968*%
%ADD48C,0.02953*%
%ADD49C,0.03937*%
%ADD50C,0.07480*%
%ADD51C,0.06102*%
%ADD52R,0.06102X0.06102*%
%ADD53R,0.05906X0.05906*%
%ADD54C,0.05906*%
%ADD55R,0.05906X0.05906*%
%ADD56R,0.09843X0.09843*%
%ADD57C,0.09843*%
%ADD58O,0.06299X0.07874*%
G04:AMPARAMS|DCode=59|XSize=78.74mil|YSize=62.99mil|CornerRadius=15.75mil|HoleSize=0mil|Usage=FLASHONLY|Rotation=270.000|XOffset=0mil|YOffset=0mil|HoleType=Round|Shape=RoundedRectangle|*
%AMROUNDEDRECTD59*
21,1,0.07874,0.03150,0,0,270.0*
21,1,0.04724,0.06299,0,0,270.0*
1,1,0.03150,-0.01575,-0.02362*
1,1,0.03150,-0.01575,0.02362*
1,1,0.03150,0.01575,0.02362*
1,1,0.03150,0.01575,-0.02362*
%
%ADD59ROUNDEDRECTD59*%
%ADD60R,0.09843X0.09843*%
%ADD61C,0.08268*%
%ADD62R,0.08268X0.08268*%
%ADD63C,0.11811*%
%ADD64C,0.02362*%
%ADD65R,0.03937X0.01968*%
G36*
X263976Y104722D02*
X237763Y78508D01*
X237398Y78659D01*
X236917Y78723D01*
Y75500D01*
X240140D01*
X240076Y75981D01*
X239926Y76345D01*
X263514Y99934D01*
X263976Y99743D01*
Y8087D01*
X246776Y8029D01*
X246584Y8491D01*
X246802Y8710D01*
X247278Y9330D01*
X247402Y9629D01*
X247577Y10052D01*
X247679Y10827D01*
Y13944D01*
X248138Y14542D01*
X248536Y15504D01*
X248672Y16535D01*
X248536Y17567D01*
X248138Y18529D01*
X247504Y19355D01*
X246678Y19988D01*
X245717Y20386D01*
X244685Y20522D01*
X243653Y20386D01*
X242692Y19988D01*
X241866Y19355D01*
X241232Y18529D01*
X240834Y17567D01*
X240698Y16535D01*
X240834Y15504D01*
X241232Y14542D01*
X241691Y13944D01*
Y12067D01*
X237623Y7999D01*
X212606Y7915D01*
X78228D01*
X70977Y15167D01*
X71041Y15650D01*
X70878Y16887D01*
X70400Y18040D01*
X69641Y19030D01*
X68650Y19790D01*
X67497Y20268D01*
X66260Y20431D01*
X65022Y20268D01*
X63869Y19790D01*
X62879Y19030D01*
X62119Y18040D01*
X61642Y16887D01*
X61479Y15650D01*
X61642Y14412D01*
X62119Y13259D01*
X62879Y12269D01*
X63869Y11509D01*
X65022Y11032D01*
X66260Y10869D01*
X66743Y10932D01*
X69774Y7901D01*
X69584Y7439D01*
X33228Y7317D01*
X32874Y7670D01*
X32874Y34001D01*
X128937D01*
X129711Y34154D01*
X130368Y34593D01*
X140405Y44630D01*
X218590D01*
X218637Y44599D01*
X219488Y44430D01*
X220339Y44599D01*
X221061Y45081D01*
X221543Y45803D01*
X221712Y46654D01*
X221543Y47505D01*
X221061Y48226D01*
X220339Y48708D01*
X219488Y48877D01*
X218637Y48708D01*
X218590Y48677D01*
X201035D01*
X171948Y77764D01*
X171936Y77820D01*
X171454Y78541D01*
X170733Y79023D01*
X169882Y79192D01*
X169031Y79023D01*
X168309Y78541D01*
X167827Y77820D01*
X167658Y76968D01*
X167827Y76117D01*
X168309Y75396D01*
X169031Y74914D01*
X169086Y74903D01*
X194851Y49139D01*
X194659Y48677D01*
X139567D01*
X138793Y48523D01*
X138136Y48084D01*
X128099Y38047D01*
X32874D01*
Y66384D01*
X121949D01*
X122534Y66500D01*
X123030Y66832D01*
X156084Y99886D01*
X161433D01*
Y107398D01*
X153921D01*
Y102049D01*
X121315Y69443D01*
X32874D01*
Y74258D01*
X69882D01*
X70467Y74374D01*
X70963Y74706D01*
X87105Y90848D01*
X87437Y91344D01*
X87553Y91929D01*
Y99886D01*
X89780D01*
Y107398D01*
X82268D01*
Y99886D01*
X84494D01*
Y92563D01*
X69248Y77317D01*
X32874D01*
X32874Y104333D01*
X46106Y117565D01*
X196414D01*
X206925Y107054D01*
X206774Y106689D01*
X206645Y105709D01*
X206774Y104728D01*
X207152Y103814D01*
X207754Y103030D01*
X208539Y102428D01*
X209453Y102049D01*
X210433Y101920D01*
X211414Y102049D01*
X212327Y102428D01*
X213112Y103030D01*
X213714Y103814D01*
X214092Y104728D01*
X214221Y105709D01*
X214092Y106689D01*
X213714Y107603D01*
X213112Y108387D01*
X212327Y108989D01*
X211414Y109368D01*
X210433Y109497D01*
X209453Y109368D01*
X209088Y109217D01*
X198129Y120176D01*
X197633Y120508D01*
X197047Y120624D01*
X45472D01*
X44887Y120508D01*
X44391Y120176D01*
X33336Y109121D01*
X32874Y109312D01*
X32874Y137150D01*
X50213D01*
X50290Y136896D01*
X50840Y135868D01*
X51580Y134966D01*
X52482Y134226D01*
X53510Y133676D01*
X54627Y133338D01*
X55287Y133273D01*
Y139173D01*
Y145074D01*
X54627Y145009D01*
X53510Y144670D01*
X52482Y144120D01*
X51580Y143380D01*
X50840Y142479D01*
X50290Y141450D01*
X50213Y141196D01*
X32874D01*
Y148098D01*
X263976D01*
Y104722D01*
D02*
G37*
%LPC*%
G36*
X128728Y145074D02*
Y139673D01*
X134129D01*
X134064Y140334D01*
X133725Y141450D01*
X133176Y142479D01*
X132436Y143380D01*
X131534Y144120D01*
X130505Y144670D01*
X129389Y145009D01*
X128728Y145074D01*
D02*
G37*
G36*
X56287D02*
Y139673D01*
X61688D01*
X61623Y140334D01*
X61284Y141450D01*
X60735Y142479D01*
X59995Y143380D01*
X59093Y144120D01*
X58064Y144670D01*
X56948Y145009D01*
X56287Y145074D01*
D02*
G37*
G36*
X127728D02*
X127068Y145009D01*
X125951Y144670D01*
X124923Y144120D01*
X124021Y143380D01*
X123281Y142479D01*
X122731Y141450D01*
X122393Y140334D01*
X122328Y139673D01*
X127728D01*
Y145074D01*
D02*
G37*
G36*
X238098Y143570D02*
Y138958D01*
X242711D01*
X242600Y139798D01*
X242083Y141047D01*
X241260Y142119D01*
X240188Y142942D01*
X238939Y143459D01*
X238098Y143570D01*
D02*
G37*
G36*
X237098Y143570D02*
X236258Y143459D01*
X235009Y142942D01*
X233937Y142119D01*
X233114Y141047D01*
X232597Y139798D01*
X232486Y138958D01*
X237098D01*
Y143570D01*
D02*
G37*
G36*
Y137958D02*
X232486D01*
X232597Y137118D01*
X233114Y135869D01*
X233937Y134796D01*
X235009Y133973D01*
X236258Y133456D01*
X237098Y133345D01*
Y137958D01*
D02*
G37*
G36*
X242711D02*
X238098D01*
Y133345D01*
X238939Y133456D01*
X240188Y133973D01*
X241260Y134796D01*
X242083Y135869D01*
X242600Y137118D01*
X242711Y137958D01*
D02*
G37*
G36*
X262732Y143591D02*
X252465D01*
Y133324D01*
X262732D01*
Y143591D01*
D02*
G37*
G36*
X217598Y143636D02*
X216258Y143459D01*
X215009Y142942D01*
X213937Y142119D01*
X213114Y141047D01*
X212597Y139798D01*
X212420Y138458D01*
X212597Y137118D01*
X213114Y135869D01*
X213937Y134796D01*
X215009Y133973D01*
X216258Y133456D01*
X217598Y133280D01*
X218939Y133456D01*
X220187Y133973D01*
X221260Y134796D01*
X222083Y135869D01*
X222600Y137118D01*
X222777Y138458D01*
X222600Y139798D01*
X222083Y141047D01*
X221260Y142119D01*
X220187Y142942D01*
X218939Y143459D01*
X217598Y143636D01*
D02*
G37*
G36*
X197598D02*
X196258Y143459D01*
X195009Y142942D01*
X193937Y142119D01*
X193114Y141047D01*
X192597Y139798D01*
X192420Y138458D01*
X192597Y137118D01*
X193114Y135869D01*
X193937Y134796D01*
X195009Y133973D01*
X196258Y133456D01*
X197598Y133280D01*
X198939Y133456D01*
X200187Y133973D01*
X201260Y134796D01*
X202083Y135869D01*
X202600Y137118D01*
X202777Y138458D01*
X202600Y139798D01*
X202083Y141047D01*
X201260Y142119D01*
X200187Y142942D01*
X198939Y143459D01*
X197598Y143636D01*
D02*
G37*
G36*
X127728Y138673D02*
X122328D01*
X122393Y138013D01*
X122731Y136896D01*
X123281Y135868D01*
X124021Y134966D01*
X124923Y134226D01*
X125951Y133676D01*
X127068Y133338D01*
X127728Y133273D01*
Y138673D01*
D02*
G37*
G36*
X61688D02*
X56287D01*
Y133273D01*
X56948Y133338D01*
X58064Y133676D01*
X59093Y134226D01*
X59995Y134966D01*
X60735Y135868D01*
X61284Y136896D01*
X61623Y138013D01*
X61688Y138673D01*
D02*
G37*
G36*
X134129D02*
X128728D01*
Y133273D01*
X129389Y133338D01*
X130505Y133676D01*
X131534Y134226D01*
X132436Y134966D01*
X133176Y135868D01*
X133725Y136896D01*
X134064Y138013D01*
X134129Y138673D01*
D02*
G37*
G36*
X174150Y145095D02*
X162307D01*
Y133252D01*
X174150D01*
Y145095D01*
D02*
G37*
G36*
X101709D02*
X89866D01*
Y133252D01*
X101709D01*
Y145095D01*
D02*
G37*
G36*
X148228Y145123D02*
X147068Y145009D01*
X145951Y144670D01*
X144923Y144120D01*
X144021Y143380D01*
X143281Y142479D01*
X142731Y141450D01*
X142393Y140334D01*
X142278Y139173D01*
X142393Y138013D01*
X142731Y136896D01*
X143281Y135868D01*
X144021Y134966D01*
X144923Y134226D01*
X145951Y133676D01*
X147068Y133338D01*
X148228Y133223D01*
X149389Y133338D01*
X150505Y133676D01*
X151534Y134226D01*
X152436Y134966D01*
X153175Y135868D01*
X153725Y136896D01*
X154064Y138013D01*
X154178Y139173D01*
X154064Y140334D01*
X153725Y141450D01*
X153175Y142479D01*
X152436Y143380D01*
X151534Y144120D01*
X150505Y144670D01*
X149389Y145009D01*
X148228Y145123D01*
D02*
G37*
G36*
X75787D02*
X74627Y145009D01*
X73510Y144670D01*
X72482Y144120D01*
X71580Y143380D01*
X70840Y142479D01*
X70290Y141450D01*
X69952Y140334D01*
X69837Y139173D01*
X69952Y138013D01*
X70290Y136896D01*
X70840Y135868D01*
X71580Y134966D01*
X72482Y134226D01*
X73510Y133676D01*
X74627Y133338D01*
X75787Y133223D01*
X76948Y133338D01*
X78064Y133676D01*
X79093Y134226D01*
X79995Y134966D01*
X80735Y135868D01*
X81284Y136896D01*
X81623Y138013D01*
X81737Y139173D01*
X81623Y140334D01*
X81284Y141450D01*
X80735Y142479D01*
X79995Y143380D01*
X79093Y144120D01*
X78064Y144670D01*
X76948Y145009D01*
X75787Y145123D01*
D02*
G37*
G36*
X230618Y109431D02*
Y106209D01*
X233841D01*
X233777Y106689D01*
X233399Y107603D01*
X232797Y108387D01*
X232012Y108989D01*
X231099Y109368D01*
X230618Y109431D01*
D02*
G37*
G36*
X229618D02*
X229138Y109368D01*
X228224Y108989D01*
X227439Y108387D01*
X226837Y107603D01*
X226459Y106689D01*
X226396Y106209D01*
X229618D01*
Y109431D01*
D02*
G37*
G36*
X138492Y107364D02*
Y104142D01*
X141715D01*
X141651Y104622D01*
X141273Y105536D01*
X140671Y106321D01*
X139886Y106922D01*
X138973Y107301D01*
X138492Y107364D01*
D02*
G37*
G36*
X66839D02*
Y104142D01*
X70061D01*
X69998Y104622D01*
X69619Y105536D01*
X69017Y106321D01*
X68233Y106922D01*
X67319Y107301D01*
X66839Y107364D01*
D02*
G37*
G36*
X137492D02*
X137012Y107301D01*
X136098Y106922D01*
X135313Y106321D01*
X134711Y105536D01*
X134333Y104622D01*
X134270Y104142D01*
X137492D01*
Y107364D01*
D02*
G37*
G36*
X65839D02*
X65358Y107301D01*
X64444Y106922D01*
X63660Y106321D01*
X63058Y105536D01*
X62679Y104622D01*
X62616Y104142D01*
X65839D01*
Y107364D01*
D02*
G37*
G36*
X233841Y105209D02*
X230618D01*
Y101986D01*
X231099Y102049D01*
X232012Y102428D01*
X232797Y103030D01*
X233399Y103814D01*
X233777Y104728D01*
X233841Y105209D01*
D02*
G37*
G36*
X229618D02*
X226396D01*
X226459Y104728D01*
X226837Y103814D01*
X227439Y103030D01*
X228224Y102428D01*
X229138Y102049D01*
X229618Y101986D01*
Y105209D01*
D02*
G37*
G36*
X243717Y109465D02*
X236205D01*
Y101953D01*
X243717D01*
Y109465D01*
D02*
G37*
G36*
X220276Y109497D02*
X219295Y109368D01*
X218381Y108989D01*
X217597Y108387D01*
X216995Y107603D01*
X216616Y106689D01*
X216487Y105709D01*
X216616Y104728D01*
X216995Y103814D01*
X217597Y103030D01*
X218381Y102428D01*
X219295Y102049D01*
X220276Y101920D01*
X221256Y102049D01*
X222170Y102428D01*
X222954Y103030D01*
X223556Y103814D01*
X223935Y104728D01*
X224064Y105709D01*
X223935Y106689D01*
X223556Y107603D01*
X222954Y108387D01*
X222170Y108989D01*
X221256Y109368D01*
X220276Y109497D01*
D02*
G37*
G36*
X70061Y103142D02*
X66839D01*
Y99919D01*
X67319Y99983D01*
X68233Y100361D01*
X69017Y100963D01*
X69619Y101748D01*
X69998Y102661D01*
X70061Y103142D01*
D02*
G37*
G36*
X141715D02*
X138492D01*
Y99919D01*
X138973Y99983D01*
X139886Y100361D01*
X140671Y100963D01*
X141273Y101748D01*
X141651Y102661D01*
X141715Y103142D01*
D02*
G37*
G36*
X65839D02*
X62616D01*
X62679Y102661D01*
X63058Y101748D01*
X63660Y100963D01*
X64444Y100361D01*
X65358Y99983D01*
X65839Y99919D01*
Y103142D01*
D02*
G37*
G36*
X137492D02*
X134270D01*
X134333Y102661D01*
X134711Y101748D01*
X135313Y100963D01*
X136098Y100361D01*
X137012Y99983D01*
X137492Y99919D01*
Y103142D01*
D02*
G37*
G36*
X147835Y107430D02*
X146854Y107301D01*
X145940Y106922D01*
X145156Y106321D01*
X144554Y105536D01*
X144175Y104622D01*
X144046Y103642D01*
X144175Y102661D01*
X144554Y101748D01*
X145156Y100963D01*
X145940Y100361D01*
X146854Y99983D01*
X147835Y99853D01*
X148815Y99983D01*
X149729Y100361D01*
X150513Y100963D01*
X151115Y101748D01*
X151494Y102661D01*
X151623Y103642D01*
X151494Y104622D01*
X151115Y105536D01*
X150513Y106321D01*
X149729Y106922D01*
X148815Y107301D01*
X147835Y107430D01*
D02*
G37*
G36*
X76181D02*
X75201Y107301D01*
X74287Y106922D01*
X73502Y106321D01*
X72900Y105536D01*
X72522Y104622D01*
X72393Y103642D01*
X72522Y102661D01*
X72900Y101748D01*
X73502Y100963D01*
X74287Y100361D01*
X74652Y100210D01*
Y96500D01*
X67767Y89615D01*
X67716Y89625D01*
X66865Y89456D01*
X66144Y88974D01*
X65662Y88253D01*
X65493Y87402D01*
X65662Y86550D01*
X66144Y85829D01*
X66865Y85347D01*
X67716Y85178D01*
X68568Y85347D01*
X69289Y85829D01*
X69771Y86550D01*
X69940Y87402D01*
X69930Y87452D01*
X77263Y94785D01*
X77594Y95281D01*
X77710Y95866D01*
Y100210D01*
X78075Y100361D01*
X78860Y100963D01*
X79462Y101748D01*
X79840Y102661D01*
X79969Y103642D01*
X79840Y104622D01*
X79462Y105536D01*
X78860Y106321D01*
X78075Y106922D01*
X77162Y107301D01*
X76181Y107430D01*
D02*
G37*
G36*
X235917Y78723D02*
X235437Y78659D01*
X234523Y78281D01*
X233739Y77679D01*
X233137Y76894D01*
X232758Y75981D01*
X232695Y75500D01*
X235917D01*
Y78723D01*
D02*
G37*
G36*
X240140Y74500D02*
X236917D01*
Y71277D01*
X237398Y71341D01*
X238312Y71719D01*
X239096Y72321D01*
X239698Y73106D01*
X240076Y74019D01*
X240140Y74500D01*
D02*
G37*
G36*
X235917D02*
X232695D01*
X232758Y74019D01*
X233137Y73106D01*
X233739Y72321D01*
X234523Y71719D01*
X235437Y71341D01*
X235917Y71277D01*
Y74500D01*
D02*
G37*
G36*
X236417Y68946D02*
X235437Y68817D01*
X234523Y68438D01*
X233739Y67836D01*
X233137Y67052D01*
X232758Y66138D01*
X232629Y65158D01*
X232758Y64177D01*
X233137Y63263D01*
X233739Y62479D01*
X234523Y61877D01*
X235437Y61498D01*
X236417Y61369D01*
X237398Y61498D01*
X238312Y61877D01*
X239096Y62479D01*
X239698Y63263D01*
X240076Y64177D01*
X240206Y65158D01*
X240076Y66138D01*
X239698Y67052D01*
X239096Y67836D01*
X238312Y68438D01*
X237398Y68817D01*
X236417Y68946D01*
D02*
G37*
G36*
X240173Y59071D02*
X232661D01*
Y51559D01*
X240173D01*
Y59071D01*
D02*
G37*
G36*
X56866Y55331D02*
X48961D01*
Y47425D01*
X56866D01*
Y55331D01*
D02*
G37*
G36*
X62756Y55365D02*
X61724Y55229D01*
X60763Y54831D01*
X59937Y54197D01*
X59303Y53371D01*
X58905Y52410D01*
X58769Y51378D01*
X58905Y50346D01*
X59303Y49384D01*
X59937Y48559D01*
X60763Y47925D01*
X61724Y47527D01*
X62756Y47391D01*
X63788Y47527D01*
X64749Y47925D01*
X65575Y48559D01*
X66209Y49384D01*
X66607Y50346D01*
X66743Y51378D01*
X66607Y52410D01*
X66209Y53371D01*
X65575Y54197D01*
X64749Y54831D01*
X63788Y55229D01*
X62756Y55365D01*
D02*
G37*
G36*
X225197Y28706D02*
X49016D01*
X48050Y28514D01*
X47230Y27966D01*
X44475Y25211D01*
X43927Y24392D01*
X43735Y23425D01*
Y19687D01*
X42879Y19030D01*
X42119Y18040D01*
X41642Y16887D01*
X41479Y15650D01*
X41642Y14412D01*
X42119Y13259D01*
X42879Y12269D01*
X43869Y11509D01*
X45022Y11032D01*
X46260Y10869D01*
X47497Y11032D01*
X48650Y11509D01*
X49641Y12269D01*
X50400Y13259D01*
X50878Y14412D01*
X51041Y15650D01*
X50878Y16887D01*
X50400Y18040D01*
X49641Y19030D01*
X48785Y19687D01*
Y22379D01*
X50062Y23656D01*
X224151D01*
X230890Y16917D01*
Y12583D01*
X238795D01*
Y20488D01*
X234460D01*
X226982Y27966D01*
X226163Y28514D01*
X225197Y28706D01*
D02*
G37*
G36*
X223925Y14132D02*
Y12508D01*
X225550D01*
X225480Y12859D01*
X224998Y13580D01*
X224276Y14062D01*
X223925Y14132D01*
D02*
G37*
G36*
X222925D02*
X222574Y14062D01*
X221853Y13580D01*
X221371Y12859D01*
X221301Y12508D01*
X222925D01*
Y14132D01*
D02*
G37*
G36*
X160593Y20412D02*
X157443D01*
X156771Y20324D01*
X156144Y20064D01*
X155607Y19651D01*
X155194Y19114D01*
X154934Y18487D01*
X154846Y17815D01*
Y13091D01*
X154934Y12418D01*
X155194Y11792D01*
X155607Y11254D01*
X156144Y10842D01*
X156771Y10582D01*
X157443Y10493D01*
X160593D01*
X161265Y10582D01*
X161891Y10842D01*
X162429Y11254D01*
X162842Y11792D01*
X163101Y12418D01*
X163190Y13091D01*
Y13430D01*
X198524D01*
X199298Y13584D01*
X199954Y14022D01*
X200992Y15060D01*
X201048Y15071D01*
X201769Y15553D01*
X202251Y16275D01*
X202421Y17126D01*
X202251Y17977D01*
X201769Y18699D01*
X201048Y19181D01*
X200197Y19350D01*
X199346Y19181D01*
X198624Y18699D01*
X198142Y17977D01*
X198131Y17921D01*
X197686Y17476D01*
X163190D01*
Y17815D01*
X163101Y18487D01*
X162842Y19114D01*
X162429Y19651D01*
X161891Y20064D01*
X161265Y20324D01*
X160593Y20412D01*
D02*
G37*
G36*
X123765D02*
X120615D01*
X119943Y20324D01*
X119317Y20064D01*
X118779Y19651D01*
X118366Y19114D01*
X118107Y18487D01*
X118018Y17815D01*
Y13091D01*
X118107Y12418D01*
X118366Y11792D01*
X118779Y11254D01*
X119317Y10842D01*
X119943Y10582D01*
X120615Y10493D01*
X123765D01*
X124437Y10582D01*
X125063Y10842D01*
X125601Y11254D01*
X126014Y11792D01*
X126273Y12418D01*
X126362Y13091D01*
Y17815D01*
X126273Y18487D01*
X126014Y19114D01*
X125601Y19651D01*
X125063Y20064D01*
X124437Y20324D01*
X123765Y20412D01*
D02*
G37*
G36*
X149175Y20426D02*
X148092Y20283D01*
X147082Y19865D01*
X146216Y19200D01*
X145551Y18333D01*
X145132Y17323D01*
X144990Y16240D01*
Y14665D01*
X145132Y13582D01*
X145551Y12573D01*
X146216Y11706D01*
X147082Y11041D01*
X148092Y10622D01*
X149175Y10480D01*
X150259Y10622D01*
X151268Y11041D01*
X152135Y11706D01*
X152800Y12573D01*
X153218Y13582D01*
X153361Y14665D01*
Y16240D01*
X153218Y17323D01*
X152800Y18333D01*
X152135Y19200D01*
X151268Y19865D01*
X150259Y20283D01*
X149175Y20426D01*
D02*
G37*
G36*
X112347D02*
X111264Y20283D01*
X110255Y19865D01*
X109388Y19200D01*
X108723Y18333D01*
X108305Y17323D01*
X108162Y16240D01*
Y14665D01*
X108305Y13582D01*
X108723Y12573D01*
X109388Y11706D01*
X110255Y11041D01*
X111264Y10622D01*
X112347Y10480D01*
X113431Y10622D01*
X114440Y11041D01*
X115307Y11706D01*
X115972Y12573D01*
X116390Y13582D01*
X116533Y14665D01*
Y16240D01*
X116390Y17323D01*
X115972Y18333D01*
X115307Y19200D01*
X114440Y19865D01*
X113431Y20283D01*
X112347Y20426D01*
D02*
G37*
G36*
X225550Y11508D02*
X223925D01*
Y9883D01*
X224276Y9953D01*
X224998Y10435D01*
X225480Y11157D01*
X225550Y11508D01*
D02*
G37*
G36*
X222925D02*
X221301D01*
X221371Y11157D01*
X221853Y10435D01*
X222574Y9953D01*
X222925Y9883D01*
Y11508D01*
D02*
G37*
%LPD*%
D42*
X157677Y103642D02*
D03*
X239961Y105709D02*
D03*
X86024Y103642D02*
D03*
D43*
X147835D02*
D03*
X137992D02*
D03*
X230118Y105709D02*
D03*
X220276D02*
D03*
X210433D02*
D03*
X76181Y103642D02*
D03*
X66339D02*
D03*
X236417Y65158D02*
D03*
Y75000D02*
D03*
D45*
Y55315D02*
D03*
D46*
X76181Y95866D02*
Y103642D01*
X67716Y87402D02*
X76181Y95866D01*
X69882Y75787D02*
X86024Y91929D01*
X15157Y75787D02*
X69882D01*
X86024Y91929D02*
Y103642D01*
X6693Y118504D02*
Y138583D01*
Y118504D02*
X9646Y115551D01*
X6693Y138583D02*
X17738Y149628D01*
X265333D01*
X9646Y115551D02*
X15157D01*
X31693Y105315D02*
X45472Y119095D01*
X25394Y105315D02*
X31693D01*
X25157Y105551D02*
X25394Y105315D01*
X45472Y119095D02*
X197047D01*
X15157Y85551D02*
X15157Y85551D01*
X15157Y75787D02*
Y85551D01*
X15157Y75787D02*
X15157Y75787D01*
X4921Y93110D02*
X7362Y95551D01*
X15905D01*
X4921Y72638D02*
Y93110D01*
Y72638D02*
X9646Y67913D01*
X15157D01*
X15157Y67913D02*
X15157Y67913D01*
X121949D01*
X157677Y103642D01*
X15157Y67913D02*
X15157Y67913D01*
X287992Y69095D02*
Y117913D01*
X268701Y137205D02*
Y146260D01*
Y137205D02*
X287992Y117913D01*
X265333Y149628D02*
X268701Y146260D01*
X197047Y119095D02*
X210433Y105709D01*
X283841Y64944D02*
X287992Y69095D01*
X276575Y64944D02*
X283841D01*
X266361Y104944D02*
X276575D01*
X236417Y75000D02*
X266361Y104944D01*
D47*
X21063Y36024D02*
X128937D01*
X139567Y46654D01*
X200197D01*
X15157Y133661D02*
X20669Y139173D01*
X15157Y124743D02*
Y133661D01*
X20669Y139173D02*
X55787D01*
X169882Y76968D02*
X200197Y46654D01*
X219488D01*
X159018Y15453D02*
X198524D01*
X200197Y17126D01*
D48*
X49016Y26181D02*
X183661D01*
X225197D01*
X46260Y23425D02*
X49016Y26181D01*
X225197D02*
X234842Y16535D01*
X46260Y15650D02*
Y23425D01*
D49*
X66260Y15650D02*
X76988Y4921D01*
X238779D01*
X244685Y10827D02*
Y16535D01*
X238779Y4921D02*
X244685Y10827D01*
D50*
X276575Y15000D02*
D03*
Y35000D02*
D03*
X66260Y15650D02*
D03*
X46260D02*
D03*
D51*
X25157Y85551D02*
D03*
Y95551D02*
D03*
Y105551D02*
D03*
Y115551D02*
D03*
Y125551D02*
D03*
X15157Y85551D02*
D03*
Y95551D02*
D03*
Y105551D02*
D03*
Y115551D02*
D03*
D52*
Y125551D02*
D03*
D53*
X52913Y51378D02*
D03*
X234842Y16535D02*
D03*
D54*
X62756Y51378D02*
D03*
X21063Y36220D02*
D03*
X244685Y16535D02*
D03*
D55*
X21063Y46063D02*
D03*
D56*
X95787Y139173D02*
D03*
X168228D02*
D03*
D57*
X75787D02*
D03*
X55787D02*
D03*
X148228D02*
D03*
X128228D02*
D03*
X276575Y84944D02*
D03*
Y104944D02*
D03*
D58*
X149175Y15453D02*
D03*
X112347D02*
D03*
D59*
X159018D02*
D03*
X122190D02*
D03*
D60*
X276575Y64944D02*
D03*
D61*
X197598Y138458D02*
D03*
X217598D02*
D03*
X237598D02*
D03*
D62*
X257598D02*
D03*
D63*
X13189Y12008D02*
D03*
X280906Y143898D02*
D03*
D64*
X67716Y87402D02*
D03*
X183661Y4921D02*
D03*
X219488Y46654D02*
D03*
X200197Y17126D02*
D03*
X183661Y26181D02*
D03*
X169882Y76968D02*
D03*
X223425Y12008D02*
D03*
D65*
X15157Y67913D02*
D03*
Y71850D02*
D03*
Y75787D02*
D03*
M02*
