G04*
G04 #@! TF.GenerationSoftware,Altium Limited,Altium Designer,20.1.8 (145)*
G04*
G04 Layer_Color=16711935*
%FSLAX25Y25*%
%MOIN*%
G70*
G04*
G04 #@! TF.SameCoordinates,19D57B75-9579-4F69-8231-0EC3C90D2157*
G04*
G04*
G04 #@! TF.FilePolarity,Negative*
G04*
G01*
G75*
%ADD29C,0.08280*%
%ADD30C,0.06902*%
%ADD31R,0.06902X0.06902*%
%ADD32R,0.06706X0.06706*%
%ADD33C,0.06706*%
%ADD34R,0.06706X0.06706*%
%ADD35R,0.10642X0.10642*%
%ADD36C,0.10642*%
%ADD37O,0.07099X0.08674*%
G04:AMPARAMS|DCode=38|XSize=86.74mil|YSize=70.99mil|CornerRadius=19.75mil|HoleSize=0mil|Usage=FLASHONLY|Rotation=270.000|XOffset=0mil|YOffset=0mil|HoleType=Round|Shape=RoundedRectangle|*
%AMROUNDEDRECTD38*
21,1,0.08674,0.03150,0,0,270.0*
21,1,0.04724,0.07099,0,0,270.0*
1,1,0.03950,-0.01575,-0.02362*
1,1,0.03950,-0.01575,0.02362*
1,1,0.03950,0.01575,0.02362*
1,1,0.03950,0.01575,-0.02362*
%
%ADD38ROUNDEDRECTD38*%
%ADD39R,0.10642X0.10642*%
%ADD40C,0.09068*%
%ADD41R,0.09068X0.09068*%
%ADD42R,0.05512X0.05512*%
%ADD43C,0.05512*%
%ADD44C,0.12611*%
%ADD45R,0.05512X0.05512*%
%ADD66R,0.04737X0.02769*%
D29*
X276575Y15000D02*
D03*
Y35000D02*
D03*
X66260Y15650D02*
D03*
X46260D02*
D03*
D30*
X25157Y85551D02*
D03*
Y95551D02*
D03*
Y105551D02*
D03*
Y115551D02*
D03*
Y125551D02*
D03*
X15157Y85551D02*
D03*
Y95551D02*
D03*
Y105551D02*
D03*
Y115551D02*
D03*
D31*
Y125551D02*
D03*
D32*
X52913Y51378D02*
D03*
X234842Y16535D02*
D03*
D33*
X62756Y51378D02*
D03*
X21063Y36220D02*
D03*
X244685Y16535D02*
D03*
D34*
X21063Y46063D02*
D03*
D35*
X95787Y139173D02*
D03*
X168228D02*
D03*
D36*
X75787D02*
D03*
X55787D02*
D03*
X148228D02*
D03*
X128228D02*
D03*
X276575Y84944D02*
D03*
Y104944D02*
D03*
D37*
X149175Y15453D02*
D03*
X112347D02*
D03*
D38*
X159018D02*
D03*
X122190D02*
D03*
D39*
X276575Y64944D02*
D03*
D40*
X197598Y138458D02*
D03*
X217598D02*
D03*
X237598D02*
D03*
D41*
X257598D02*
D03*
D42*
X157677Y103642D02*
D03*
X239961Y105709D02*
D03*
X86024Y103642D02*
D03*
D43*
X147835D02*
D03*
X137992D02*
D03*
X230118Y105709D02*
D03*
X220276D02*
D03*
X210433D02*
D03*
X76181Y103642D02*
D03*
X66339D02*
D03*
X236417Y65158D02*
D03*
Y75000D02*
D03*
D44*
X13189Y12008D02*
D03*
X280906Y143898D02*
D03*
D45*
X236417Y55315D02*
D03*
D66*
X15157Y67913D02*
D03*
Y71850D02*
D03*
Y75787D02*
D03*
M02*
