G04*
G04 #@! TF.GenerationSoftware,Altium Limited,Altium Designer,20.1.8 (145)*
G04*
G04 Layer_Color=65535*
%FSLAX25Y25*%
%MOIN*%
G70*
G04*
G04 #@! TF.SameCoordinates,19D57B75-9579-4F69-8231-0EC3C90D2157*
G04*
G04*
G04 #@! TF.FilePolarity,Positive*
G04*
G01*
G75*
%ADD10C,0.00787*%
%ADD11C,0.00984*%
%ADD12C,0.00394*%
%ADD13C,0.00500*%
%ADD14R,0.01181X0.07480*%
%ADD15R,0.12299X0.01968*%
G36*
X107677Y123425D02*
D01*
D02*
G37*
G36*
X180118D02*
D01*
D02*
G37*
G36*
X207378Y40996D02*
D01*
D02*
G37*
G36*
X248819Y86614D02*
X247638Y85433D01*
Y87795D01*
X248819Y86614D01*
D02*
G37*
G36*
X260827Y53054D02*
D01*
D02*
G37*
D10*
X262925Y3622D02*
G03*
X263266Y3032I341J-197D01*
G01*
X266655D02*
G03*
X266996Y3622I0J394D01*
G01*
X266655Y43031D02*
G03*
X266996Y43622I0J394D01*
G01*
X266883Y45000D02*
G03*
X266542Y44409I0J-394D01*
G01*
X263380D02*
G03*
X263038Y45000I-341J197D01*
G01*
X262925Y43622D02*
G03*
X263266Y43031I341J-197D01*
G01*
X281514Y46968D02*
G03*
X281173Y46378I0J-394D01*
G01*
X285244D02*
G03*
X284903Y46968I-341J197D01*
G01*
X284790Y5590D02*
G03*
X285131Y5000I341J-197D01*
G01*
X285244Y6378D02*
G03*
X284903Y6968I-341J197D01*
G01*
X281514D02*
G03*
X281173Y6378I0J-394D01*
G01*
X281287Y5000D02*
G03*
X281628Y5590I0J394D01*
G01*
X284646Y15000D02*
G03*
X284646Y15000I-8071J0D01*
G01*
Y35000D02*
G03*
X284646Y35000I-8071J0D01*
G01*
X34882Y29300D02*
G03*
X34291Y28959I-197J-341D01*
G01*
Y25569D02*
G03*
X34882Y25228I394J0D01*
G01*
X74291Y25569D02*
G03*
X74882Y25228I394J0D01*
G01*
X76260Y25342D02*
G03*
X75669Y25683I-394J0D01*
G01*
Y28845D02*
G03*
X76260Y29186I197J341D01*
G01*
X74882Y29300D02*
G03*
X74291Y28959I-197J-341D01*
G01*
X78228Y10711D02*
G03*
X77638Y11051I-394J0D01*
G01*
Y6980D02*
G03*
X78228Y7321I197J341D01*
G01*
X36850Y7435D02*
G03*
X36260Y7094I-197J-341D01*
G01*
X37638Y6980D02*
G03*
X38228Y7321I197J341D01*
G01*
Y10711D02*
G03*
X37638Y11051I-394J0D01*
G01*
X36260Y10938D02*
G03*
X36850Y10597I394J0D01*
G01*
X54331Y15650D02*
G03*
X54331Y15650I-8071J0D01*
G01*
X74331D02*
G03*
X74331Y15650I-8071J0D01*
G01*
X257992Y121332D02*
G03*
X257992Y121332I-394J0D01*
G01*
X260039Y5000D02*
Y45000D01*
Y5000D02*
X263720D01*
X262925Y3622D02*
X263720Y5000D01*
X263266Y3032D02*
X266655D01*
X266201Y5000D02*
X266996Y3622D01*
X266201Y5000D02*
X291535D01*
Y45000D01*
X260039D02*
X291535D01*
X266542Y44409D02*
X266996Y43622D01*
X262925D02*
X263380Y44409D01*
X263266Y43031D02*
X266655D01*
X284449Y45000D02*
X285244Y46378D01*
X281173D02*
X281968Y45000D01*
X281514Y46968D02*
X284903D01*
X284790Y5590D02*
X285244Y6378D01*
X281514Y6968D02*
X284903D01*
X281173Y6378D02*
X281628Y5590D01*
X286417Y5000D02*
Y45000D01*
X266732Y5000D02*
Y45000D01*
X268701Y26929D02*
Y43071D01*
X284449Y26929D02*
Y43071D01*
X268701D02*
X291535D01*
X268701Y6929D02*
Y23071D01*
X284449Y6929D02*
Y23071D01*
X268701D02*
X291535D01*
X268701Y26929D02*
X291535D01*
X268701Y6929D02*
X291535D01*
X288779Y5000D02*
Y45000D01*
X260039Y5000D02*
X291535D01*
X268701Y40905D02*
X284449D01*
X268701Y29094D02*
X284449D01*
X268701Y20906D02*
X284449D01*
X268701Y9094D02*
X284449D01*
X37284Y65492D02*
Y145610D01*
X3032Y65491D02*
X37283D01*
X3031Y65492D02*
Y145610D01*
X37284D01*
X227953Y86614D02*
X247638D01*
X40354Y7776D02*
Y23524D01*
X52165Y7776D02*
Y23524D01*
X60354Y7776D02*
Y23524D01*
X72165Y7776D02*
Y23524D01*
X36260Y689D02*
Y32185D01*
Y3445D02*
X76260D01*
X38189Y689D02*
Y23524D01*
X58189Y689D02*
Y23524D01*
X54331Y689D02*
Y23524D01*
X38189Y7776D02*
X54331D01*
X38189Y23524D02*
X54331D01*
X74331Y689D02*
Y23524D01*
X58189Y7776D02*
X74331D01*
X58189Y23524D02*
X74331D01*
X36260Y25492D02*
X76260D01*
X36260Y5807D02*
X76260D01*
X36850Y10597D02*
X37638Y11051D01*
X38228Y7321D02*
Y10711D01*
X36850Y7435D02*
X37638Y6980D01*
X78228Y7321D02*
Y10711D01*
X76260Y10256D02*
X77638Y11051D01*
X76260Y7776D02*
X77638Y6980D01*
X74291Y25569D02*
Y28959D01*
X74882Y29300D02*
X75669Y28845D01*
X74882Y25228D02*
X75669Y25683D01*
X76260Y689D02*
Y32185D01*
X36260Y689D02*
X76260D01*
X36260D02*
Y26024D01*
X34882Y25228D02*
X36260Y26024D01*
X34291Y25569D02*
Y28959D01*
X34882Y29300D02*
X36260Y28504D01*
Y32185D01*
X76260D01*
X43268Y37992D02*
Y60630D01*
X72402D01*
X43268Y37992D02*
X72402D01*
Y60630D01*
X82874Y6496D02*
Y13583D01*
Y6496D02*
X96260D01*
Y13583D01*
X82874D02*
X96260D01*
X82874Y6496D02*
Y13583D01*
Y6496D02*
X96260D01*
Y13583D01*
X82874D02*
X96260D01*
X84449Y17126D02*
Y24213D01*
X94685D01*
Y17126D02*
Y24213D01*
X84449Y17126D02*
X94685D01*
X7677Y26575D02*
X30315D01*
X7677D02*
Y55709D01*
X30315Y26575D02*
Y55709D01*
X7677D02*
X30315D01*
X93504Y66713D02*
Y66890D01*
Y56713D02*
Y57067D01*
Y46890D02*
Y47067D01*
Y46890D02*
X121063D01*
Y66713D02*
Y66890D01*
Y56713D02*
Y57067D01*
Y46890D02*
Y47067D01*
X93504Y66890D02*
X121063D01*
X207677Y13583D02*
X221063D01*
Y6496D02*
Y13583D01*
X207677Y6496D02*
X221063D01*
X207677D02*
Y13583D01*
X221063D01*
Y6496D02*
Y13583D01*
X207677Y6496D02*
X221063D01*
X207677D02*
Y13583D01*
X254331Y3150D02*
Y25787D01*
X225197Y3150D02*
X254331D01*
X225197Y25787D02*
X254331D01*
X225197Y3150D02*
Y25787D01*
X191142Y13583D02*
X204527D01*
Y6496D02*
Y13583D01*
X191142Y6496D02*
X204527D01*
X191142D02*
Y13583D01*
X204527D01*
Y6496D02*
Y13583D01*
X191142Y6496D02*
X204527D01*
X191142D02*
Y13583D01*
X174409D02*
X187795D01*
Y6496D02*
Y13583D01*
X174409Y6496D02*
X187795D01*
X174409D02*
Y13583D01*
X187795D01*
Y6496D02*
Y13583D01*
X174409Y6496D02*
X187795D01*
X174409D02*
Y13583D01*
X192717Y17126D02*
X202953D01*
Y24213D01*
X192717D02*
X202953D01*
X192717Y17126D02*
Y24213D01*
X209252Y17126D02*
Y24213D01*
X219488D01*
Y17126D02*
Y24213D01*
X209252Y17126D02*
X219488D01*
X175984D02*
X186221D01*
Y24213D01*
X175984D02*
X186221D01*
X175984Y17126D02*
Y24213D01*
X118374Y84186D02*
X128610D01*
X118374Y77143D02*
Y84186D01*
X128610Y77143D02*
Y84186D01*
X118374Y77143D02*
X128610D01*
X150591Y77099D02*
X160827D01*
Y84143D01*
X150591Y77099D02*
Y84143D01*
X160827D01*
X134482Y77099D02*
X144719D01*
Y84143D01*
X134482Y77099D02*
Y84143D01*
X144719D01*
X195378Y71457D02*
X207378D01*
X195378Y39961D02*
Y71457D01*
Y39961D02*
X207378D01*
Y71457D01*
X128347Y94390D02*
X167323D01*
X128347D02*
Y117028D01*
X167323D01*
Y94390D02*
Y117028D01*
X200591Y118307D02*
X249803D01*
Y93110D02*
Y118307D01*
X200591Y93110D02*
X249803D01*
X200591D02*
Y118307D01*
X155709Y68976D02*
X160224D01*
X155709Y43228D02*
Y68976D01*
Y43228D02*
X160224D01*
X56693Y94390D02*
X95669D01*
X56693D02*
Y117028D01*
X95669D01*
Y94390D02*
Y117028D01*
X227165Y45669D02*
Y84646D01*
X249803D01*
Y45669D02*
Y84646D01*
X227165Y45669D02*
X249803D01*
X40026Y116535D02*
X43962D01*
X42650Y115224D01*
X43962Y113912D01*
X40026D01*
X43962Y110632D02*
Y111944D01*
X43306Y112600D01*
X40682D01*
X40026Y111944D01*
Y110632D01*
X40682Y109976D01*
X43306D01*
X43962Y110632D01*
Y108664D02*
X40026D01*
Y106696D01*
X40682Y106040D01*
X43306D01*
X43962Y106696D01*
Y108664D01*
X39370Y104728D02*
Y102104D01*
X43306Y98169D02*
X43962Y98825D01*
Y100136D01*
X43306Y100793D01*
X40682D01*
X40026Y100136D01*
Y98825D01*
X40682Y98169D01*
X43962Y94889D02*
Y96201D01*
X43306Y96857D01*
X40682D01*
X40026Y96201D01*
Y94889D01*
X40682Y94233D01*
X43306D01*
X43962Y94889D01*
X40026Y92921D02*
X43962D01*
X40026Y90297D01*
X43962D01*
X40026Y88985D02*
X43962D01*
X40026Y86361D01*
X43962D01*
Y82426D02*
Y85049D01*
X40026D01*
Y82426D01*
X41994Y85049D02*
Y83738D01*
X43306Y78490D02*
X43962Y79146D01*
Y80458D01*
X43306Y81114D01*
X40682D01*
X40026Y80458D01*
Y79146D01*
X40682Y78490D01*
X43962Y77178D02*
Y74554D01*
Y75866D01*
X40026D01*
X43962Y71274D02*
Y72586D01*
X43306Y73242D01*
X40682D01*
X40026Y72586D01*
Y71274D01*
X40682Y70618D01*
X43306D01*
X43962Y71274D01*
X40026Y69306D02*
X43962D01*
Y67339D01*
X43306Y66683D01*
X41994D01*
X41338Y67339D01*
Y69306D01*
Y67995D02*
X40026Y66683D01*
X111679Y33463D02*
X109055D01*
Y31495D01*
X110367D01*
X109055D01*
Y29528D01*
X112991D02*
Y32151D01*
X114303Y33463D01*
X115615Y32151D01*
Y29528D01*
Y31495D01*
X112991D01*
X116927Y29528D02*
Y33463D01*
X119550Y29528D01*
Y33463D01*
X124798Y29528D02*
X126110D01*
X125454D01*
Y33463D01*
X124798Y32807D01*
X32283Y60236D02*
Y58924D01*
Y59580D01*
X36219D01*
X35563Y60236D01*
X32283Y54333D02*
Y56956D01*
X34907Y54333D01*
X35563D01*
X36219Y54989D01*
Y56300D01*
X35563Y56956D01*
X34907Y53021D02*
X32283Y51709D01*
X34907Y50397D01*
X36219Y45149D02*
Y43837D01*
Y44493D01*
X32283D01*
Y45149D01*
Y43837D01*
Y41869D02*
X36219D01*
X32283Y39246D01*
X36219D01*
X32283Y37934D02*
X36219D01*
Y35966D01*
X35563Y35310D01*
X34251D01*
X33595Y35966D01*
Y37934D01*
X212468Y76640D02*
X211812Y75984D01*
Y74672D01*
X212468Y74016D01*
X213124D01*
X213780Y74672D01*
Y75984D01*
X214436Y76640D01*
X215092D01*
X215748Y75984D01*
Y74672D01*
X215092Y74016D01*
X211812Y77952D02*
Y79263D01*
Y78607D01*
X215748D01*
Y77952D01*
Y79263D01*
X212468Y83855D02*
X211812Y83199D01*
Y81887D01*
X212468Y81231D01*
X215092D01*
X215748Y81887D01*
Y83199D01*
X215092Y83855D01*
X213780D01*
Y82543D01*
X215748Y89103D02*
Y90415D01*
Y89759D01*
X211812D01*
X212468Y89103D01*
X203413Y76246D02*
X202757Y75590D01*
Y74278D01*
X203413Y73622D01*
X204069D01*
X204725Y74278D01*
Y75590D01*
X205381Y76246D01*
X206037D01*
X206693Y75590D01*
Y74278D01*
X206037Y73622D01*
X202757Y77558D02*
Y78870D01*
Y78214D01*
X206693D01*
Y77558D01*
Y78870D01*
X203413Y83461D02*
X202757Y82805D01*
Y81494D01*
X203413Y80838D01*
X206037D01*
X206693Y81494D01*
Y82805D01*
X206037Y83461D01*
X204725D01*
Y82149D01*
X206693Y91333D02*
Y88709D01*
X204069Y91333D01*
X203413D01*
X202757Y90677D01*
Y89365D01*
X203413Y88709D01*
X238976Y89895D02*
X241600D01*
X240288Y91207D02*
Y88583D01*
X229921Y89764D02*
X232545D01*
X136614Y90551D02*
X139238D01*
X64567Y90945D02*
X67191D01*
X146770Y90346D02*
X149394D01*
X148082Y91658D02*
Y89034D01*
X74329Y90346D02*
X76953D01*
X75641Y91658D02*
Y89034D01*
X156561Y91862D02*
X155905Y92518D01*
X154593D01*
X153937Y91862D01*
Y91207D01*
X154593Y90551D01*
X155905D01*
X156561Y89895D01*
Y89239D01*
X155905Y88583D01*
X154593D01*
X153937Y89239D01*
X157873Y92518D02*
X159185D01*
X158529D01*
Y88583D01*
X157873D01*
X159185D01*
X163776Y91862D02*
X163120Y92518D01*
X161809D01*
X161153Y91862D01*
Y89239D01*
X161809Y88583D01*
X163120D01*
X163776Y89239D01*
Y90551D01*
X162464D01*
X84514Y91862D02*
X83858Y92518D01*
X82546D01*
X81890Y91862D01*
Y91207D01*
X82546Y90551D01*
X83858D01*
X84514Y89895D01*
Y89239D01*
X83858Y88583D01*
X82546D01*
X81890Y89239D01*
X85826Y92518D02*
X87137D01*
X86481D01*
Y88583D01*
X85826D01*
X87137D01*
X91729Y91862D02*
X91073Y92518D01*
X89761D01*
X89105Y91862D01*
Y89239D01*
X89761Y88583D01*
X91073D01*
X91729Y89239D01*
Y90551D01*
X90417D01*
X254201Y110498D02*
X253545Y109842D01*
Y108530D01*
X254201Y107874D01*
X256824D01*
X257480Y108530D01*
Y109842D01*
X256824Y110498D01*
X255512D01*
Y109186D01*
X257480Y111810D02*
X253545D01*
X257480Y114434D01*
X253545D01*
Y115745D02*
X257480D01*
Y117713D01*
X256824Y118369D01*
X254201D01*
X253545Y117713D01*
Y115745D01*
X257480Y80315D02*
X253545D01*
Y82283D01*
X254201Y82939D01*
X255512D01*
X256168Y82283D01*
Y80315D01*
X253545Y84251D02*
X257480D01*
X256168Y85563D01*
X257480Y86875D01*
X253545D01*
X257480Y88186D02*
X253545D01*
X254856Y89498D01*
X253545Y90810D01*
X257480D01*
X253545Y59842D02*
X257480D01*
Y61810D01*
X256824Y62466D01*
X254201D01*
X253545Y61810D01*
Y59842D01*
Y63778D02*
Y65090D01*
Y64434D01*
X257480D01*
Y63778D01*
Y65090D01*
Y67058D02*
X253545D01*
Y69026D01*
X254201Y69682D01*
X255512D01*
X256168Y69026D01*
Y67058D01*
Y68370D02*
X257480Y69682D01*
X225197Y44882D02*
X221261D01*
X222573Y46194D01*
X221261Y47506D01*
X225197D01*
X221261Y50785D02*
Y49474D01*
X221917Y48818D01*
X224541D01*
X225197Y49474D01*
Y50785D01*
X224541Y51441D01*
X221917D01*
X221261Y50785D01*
Y52753D02*
Y55377D01*
Y54065D01*
X225197D01*
X221261Y58657D02*
Y57345D01*
X221917Y56689D01*
X224541D01*
X225197Y57345D01*
Y58657D01*
X224541Y59313D01*
X221917D01*
X221261Y58657D01*
X225197Y60625D02*
X221261D01*
Y62593D01*
X221917Y63249D01*
X223229D01*
X223885Y62593D01*
Y60625D01*
Y61937D02*
X225197Y63249D01*
X221261Y68496D02*
Y69808D01*
Y69152D01*
X225197D01*
Y68496D01*
Y69808D01*
Y71776D02*
X221261D01*
X225197Y74400D01*
X221261D01*
X225197Y75712D02*
X221261D01*
Y77680D01*
X221917Y78336D01*
X223229D01*
X223885Y77680D01*
Y75712D01*
X221261Y79648D02*
X224541D01*
X225197Y80304D01*
Y81616D01*
X224541Y82271D01*
X221261D01*
Y83583D02*
Y86207D01*
Y84895D01*
X225197D01*
X221917Y90143D02*
X221261Y89487D01*
Y88175D01*
X221917Y87519D01*
X222573D01*
X223229Y88175D01*
Y89487D01*
X223885Y90143D01*
X224541D01*
X225197Y89487D01*
Y88175D01*
X224541Y87519D01*
X198425Y83071D02*
X194490D01*
Y85039D01*
X195145Y85695D01*
X196457D01*
X197113Y85039D01*
Y83071D01*
Y84383D02*
X198425Y85695D01*
Y87007D02*
X194490D01*
Y88974D01*
X195145Y89630D01*
X196457D01*
X197113Y88974D01*
Y87007D01*
X198425Y90942D02*
X194490D01*
X195801Y92254D01*
X194490Y93566D01*
X198425D01*
X195145Y101438D02*
X194490Y100782D01*
Y99470D01*
X195145Y98814D01*
X195801D01*
X196457Y99470D01*
Y100782D01*
X197113Y101438D01*
X197769D01*
X198425Y100782D01*
Y99470D01*
X197769Y98814D01*
X194490Y105373D02*
Y102750D01*
X198425D01*
Y105373D01*
X196457Y102750D02*
Y104061D01*
X198425Y106685D02*
X194490D01*
X198425Y109309D01*
X194490D01*
X195145Y113245D02*
X194490Y112589D01*
Y111277D01*
X195145Y110621D01*
X195801D01*
X196457Y111277D01*
Y112589D01*
X197113Y113245D01*
X197769D01*
X198425Y112589D01*
Y111277D01*
X197769Y110621D01*
X194490Y116525D02*
Y115213D01*
X195145Y114557D01*
X197769D01*
X198425Y115213D01*
Y116525D01*
X197769Y117181D01*
X195145D01*
X194490Y116525D01*
X198425Y118492D02*
X194490D01*
Y120460D01*
X195145Y121116D01*
X196457D01*
X197113Y120460D01*
Y118492D01*
Y119804D02*
X198425Y121116D01*
X173227Y120079D02*
Y117455D01*
Y118767D01*
X169291D01*
X173227Y113519D02*
Y116143D01*
X169291D01*
Y113519D01*
X171259Y116143D02*
Y114831D01*
X169291Y112207D02*
X173227D01*
X171915Y110895D01*
X173227Y109583D01*
X169291D01*
Y108272D02*
X173227D01*
Y106304D01*
X172571Y105648D01*
X171259D01*
X170603Y106304D01*
Y108272D01*
X169291Y97776D02*
Y100400D01*
X171915Y97776D01*
X172571D01*
X173227Y98432D01*
Y99744D01*
X172571Y100400D01*
X101574Y120079D02*
Y117455D01*
Y118767D01*
X97638D01*
X101574Y113519D02*
Y116143D01*
X97638D01*
Y113519D01*
X99606Y116143D02*
Y114831D01*
X97638Y112207D02*
X101574D01*
X100262Y110895D01*
X101574Y109583D01*
X97638D01*
Y108272D02*
X101574D01*
Y106304D01*
X100918Y105648D01*
X99606D01*
X98950Y106304D01*
Y108272D01*
X97638Y100400D02*
Y99088D01*
Y99744D01*
X101574D01*
X100918Y100400D01*
X209055Y29658D02*
X209711Y30314D01*
X211023D01*
X211679Y29658D01*
Y29002D01*
X211023Y28346D01*
X210367D01*
X211023D01*
X211679Y27690D01*
Y27034D01*
X211023Y26378D01*
X209711D01*
X209055Y27034D01*
X212991Y29002D02*
X214303Y26378D01*
X215615Y29002D01*
X216927Y29658D02*
X217583Y30314D01*
X218895D01*
X219550Y29658D01*
Y29002D01*
X218895Y28346D01*
X218238D01*
X218895D01*
X219550Y27690D01*
Y27034D01*
X218895Y26378D01*
X217583D01*
X216927Y27034D01*
X193307Y26378D02*
X194619D01*
X193963D01*
Y30314D01*
X193307Y29658D01*
X199211Y26378D02*
X196587D01*
X199211Y29002D01*
Y29658D01*
X198555Y30314D01*
X197243D01*
X196587Y29658D01*
X200523Y29002D02*
X201835Y26378D01*
X203146Y29002D01*
X179002Y26378D02*
X176378D01*
X179002Y29002D01*
Y29658D01*
X178346Y30314D01*
X177034D01*
X176378Y29658D01*
X182282Y26378D02*
Y30314D01*
X180314Y28346D01*
X182938D01*
X184249Y29002D02*
X185561Y26378D01*
X186873Y29002D01*
X274016Y2493D02*
X276640D01*
X275328Y3805D02*
Y1181D01*
X220472Y3280D02*
X223096D01*
X221784Y4592D02*
Y1969D01*
X256372Y3171D02*
X258996D01*
X275984Y49606D02*
Y46982D01*
X81423Y3128D02*
X78799D01*
X11942Y22047D02*
Y24671D01*
X31496Y4462D02*
X34120D01*
X32808Y5773D02*
Y3150D01*
X10630Y59186D02*
X13254D01*
X11942Y60498D02*
Y57874D01*
X61417Y63779D02*
X64041D01*
X51575Y63910D02*
X54199D01*
X52887Y65222D02*
Y62598D01*
X74410Y65486D02*
Y68110D01*
X77033Y65486D01*
X77689D01*
X78345Y66142D01*
Y67454D01*
X77689Y68110D01*
X74410Y62207D02*
X78345D01*
X76377Y64174D01*
Y61551D01*
X77033Y60239D02*
X74410Y58927D01*
X77033Y57615D01*
X78345Y52367D02*
Y51055D01*
Y51711D01*
X74410D01*
Y52367D01*
Y51055D01*
Y49088D02*
X78345D01*
X74410Y46464D01*
X78345D01*
X74410Y45152D02*
X78345D01*
Y43184D01*
X77689Y42528D01*
X76377D01*
X75721Y43184D01*
Y45152D01*
X78345Y41216D02*
X75065D01*
X74410Y40560D01*
Y39248D01*
X75065Y38592D01*
X78345D01*
Y37280D02*
Y34657D01*
Y35968D01*
X74410D01*
X148293Y33463D02*
X145669D01*
Y31495D01*
X146981D01*
X145669D01*
Y29528D01*
X149605D02*
Y32151D01*
X150917Y33463D01*
X152229Y32151D01*
Y29528D01*
Y31495D01*
X149605D01*
X153541Y29528D02*
Y33463D01*
X156165Y29528D01*
Y33463D01*
X164036Y29528D02*
X161412D01*
X164036Y32151D01*
Y32807D01*
X163380Y33463D01*
X162068D01*
X161412Y32807D01*
X250590Y27688D02*
X247808Y30471D01*
X249199Y31863D01*
X250127D01*
X251054Y30935D01*
Y30007D01*
X249663Y28616D01*
X250590Y33254D02*
X253374Y30471D01*
Y32327D01*
X255229D01*
X252446Y35110D01*
X256156Y33254D02*
X253374Y36037D01*
X254765Y37429D01*
X255693Y37429D01*
X256620Y36501D01*
X256620Y35574D01*
X255229Y34182D01*
X256156Y35110D02*
X258012D01*
X243701Y29854D02*
X240918Y32637D01*
X242773Y32637D01*
X242773Y34492D01*
X245556Y31709D01*
X245092Y36811D02*
X244165Y35884D01*
Y34956D01*
X246020Y33101D01*
X246948D01*
X247875Y34028D01*
Y34956D01*
X246020Y36811D01*
X245092Y36811D01*
X246484Y38203D02*
X248339Y40058D01*
X247411Y39130D01*
X250194Y36347D01*
X250658Y42377D02*
X249731Y41449D01*
Y40522D01*
X251586Y38666D01*
X252514D01*
X253441Y39594D01*
X253441Y40522D01*
X251586Y42377D01*
X250658Y42377D01*
X254833Y40986D02*
X252050Y43769D01*
X253441Y45160D01*
X254369Y45160D01*
X255297Y44232D01*
X255297Y43305D01*
X253905Y41913D01*
X254833Y42841D02*
X256688D01*
D11*
X965Y125551D02*
G03*
X965Y125551I-492J0D01*
G01*
X21555Y58268D02*
G03*
X21555Y58268I-492J0D01*
G01*
X223130Y16535D02*
G03*
X223130Y16535I-492J0D01*
G01*
X41201Y51378D02*
G03*
X41201Y51378I-492J0D01*
G01*
X169921Y103701D02*
G03*
X169921Y103701I-492J0D01*
G01*
X145177Y70433D02*
G03*
X145177Y70433I-492J0D01*
G01*
X84941Y61988D02*
G03*
X84941Y61988I-492J0D01*
G01*
X98268Y103701D02*
G03*
X98268Y103701I-492J0D01*
G01*
X236968Y43563D02*
G03*
X236968Y43563I-492J0D01*
G01*
X253346Y105610D02*
G03*
X253346Y105610I-492J0D01*
G01*
D12*
X107992Y121850D02*
Y154921D01*
X43425Y121850D02*
Y154921D01*
Y121850D02*
X107992D01*
X43425Y154921D02*
X107992D01*
X99803Y152559D02*
Y154921D01*
X91929Y152559D02*
X99803D01*
X91929D02*
Y154921D01*
X79724Y152559D02*
Y154921D01*
X71850Y152559D02*
X79724D01*
X71850D02*
Y154921D01*
X43504Y150984D02*
X107677Y150984D01*
X43504Y123425D02*
X107677Y123425D01*
X43701Y124606D02*
X107874Y124606D01*
X51772Y152559D02*
X59646D01*
Y154921D01*
X51772Y152559D02*
Y154921D01*
X180433Y121850D02*
Y154921D01*
X115866Y121850D02*
Y154921D01*
Y121850D02*
X180433D01*
X115866Y154921D02*
X180433D01*
X172244Y152559D02*
Y154921D01*
X164370Y152559D02*
X172244D01*
X164370D02*
Y154921D01*
X152165Y152559D02*
Y154921D01*
X144291Y152559D02*
X152165D01*
X144291D02*
Y154921D01*
X115945Y150984D02*
X180118Y150984D01*
X115945Y123425D02*
X180118Y123425D01*
X116142Y124606D02*
X180315Y124606D01*
X124213Y152559D02*
X132087D01*
Y154921D01*
X124213Y152559D02*
Y154921D01*
X138348Y1280D02*
Y27657D01*
X150160Y23720D02*
Y27657D01*
X158821Y23720D02*
Y27657D01*
X150160Y23720D02*
X158821D01*
X138348Y27657D02*
X169844D01*
Y1280D02*
Y27657D01*
X138348Y1280D02*
X169844D01*
X259252Y52739D02*
X292323D01*
X259252Y117306D02*
X292323D01*
X259252Y52739D02*
Y117306D01*
X292323Y52739D02*
Y117306D01*
X289961Y60928D02*
X292323D01*
X289961D02*
Y68802D01*
X292323D01*
X289961Y81007D02*
X292323D01*
X289961D02*
Y88881D01*
X292323D01*
X288386Y117227D02*
X288386Y53054D01*
X260827Y117227D02*
X260827Y53054D01*
X262008Y117031D02*
X262008Y52857D01*
X289961Y101086D02*
Y108960D01*
Y101086D02*
X292323D01*
X289961Y108960D02*
X292323D01*
X101521Y1280D02*
X133017D01*
Y27657D01*
X101521D02*
X133017D01*
X113332Y23720D02*
X121993D01*
Y27657D01*
X113332Y23720D02*
Y27657D01*
X101521Y1280D02*
Y27657D01*
D13*
X187598Y155977D02*
X267598D01*
X187598Y123694D02*
Y155977D01*
Y123694D02*
X267598D01*
Y155977D01*
D14*
X220472Y9843D02*
D03*
D03*
X203937D02*
D03*
D03*
X187205D02*
D03*
D03*
X95669D02*
D03*
D03*
D15*
X201228Y40945D02*
D03*
M02*
