G04*
G04 #@! TF.GenerationSoftware,Altium Limited,Altium Designer,20.1.8 (145)*
G04*
G04 Layer_Color=32896*
%FSLAX25Y25*%
%MOIN*%
G70*
G04*
G04 #@! TF.SameCoordinates,19D57B75-9579-4F69-8231-0EC3C90D2157*
G04*
G04*
G04 #@! TF.FilePolarity,Positive*
G04*
G01*
G75*
%ADD10C,0.00787*%
%ADD67C,0.01181*%
G36*
X139998Y88444D02*
X140926D01*
Y88341D01*
X141647D01*
Y88238D01*
X142163D01*
Y88134D01*
X142575D01*
Y88031D01*
X142987D01*
Y87928D01*
X143296D01*
Y87825D01*
X143605D01*
Y87722D01*
X143915D01*
Y87619D01*
X144224D01*
Y87516D01*
X144430D01*
Y87413D01*
X144739D01*
Y87310D01*
X144945D01*
Y87207D01*
X145151D01*
Y87104D01*
X145461D01*
Y87001D01*
X145667D01*
Y86898D01*
X145873D01*
Y86795D01*
X146079D01*
Y86691D01*
X146285D01*
Y86588D01*
X146388D01*
Y86485D01*
X146595D01*
Y86382D01*
X146801D01*
Y86279D01*
X146904D01*
Y86176D01*
X147110D01*
Y86073D01*
X147316D01*
Y85970D01*
X147419D01*
Y85867D01*
X147625D01*
Y85764D01*
X147728D01*
Y85661D01*
X147831D01*
Y85558D01*
X148038D01*
Y85455D01*
X148141D01*
Y85352D01*
X148347D01*
Y85249D01*
X148450D01*
Y85145D01*
X148553D01*
Y85042D01*
X148656D01*
Y84939D01*
X148862D01*
Y84836D01*
X148965D01*
Y84733D01*
X149068D01*
Y84630D01*
X149171D01*
Y84527D01*
X149274D01*
Y84424D01*
X149377D01*
Y84321D01*
X149480D01*
Y84218D01*
X149583D01*
Y84115D01*
X149687D01*
Y84012D01*
X149790D01*
Y83909D01*
X149893D01*
Y83806D01*
X149996D01*
Y83702D01*
X150099D01*
Y83599D01*
X150202D01*
Y83496D01*
X150305D01*
Y83393D01*
X150408D01*
Y83290D01*
X150511D01*
Y83187D01*
X150614D01*
Y83084D01*
X150717D01*
Y82981D01*
X150820D01*
Y82878D01*
X150923D01*
Y82775D01*
Y82672D01*
X151026D01*
Y82569D01*
X151129D01*
Y82466D01*
X151233D01*
Y82363D01*
X151336D01*
Y82260D01*
Y82156D01*
X151439D01*
Y82053D01*
X151542D01*
Y81950D01*
X151645D01*
Y81847D01*
Y81744D01*
X151748D01*
Y81641D01*
X151851D01*
Y81538D01*
Y81435D01*
X151954D01*
Y81332D01*
X152057D01*
Y81229D01*
Y81126D01*
X152160D01*
Y81023D01*
X152263D01*
Y80920D01*
Y80817D01*
X152366D01*
Y80713D01*
Y80610D01*
X152469D01*
Y80507D01*
Y80404D01*
X152573D01*
Y80301D01*
X152676D01*
Y80198D01*
Y80095D01*
X152779D01*
Y79992D01*
Y79889D01*
X152882D01*
Y79786D01*
Y79683D01*
X152985D01*
Y79580D01*
Y79477D01*
X153088D01*
Y79374D01*
Y79270D01*
X153191D01*
Y79167D01*
Y79064D01*
Y78961D01*
X153294D01*
Y78858D01*
Y78755D01*
X153397D01*
Y78652D01*
Y78549D01*
X153500D01*
Y78446D01*
Y78343D01*
Y78240D01*
X153603D01*
Y78137D01*
Y78034D01*
Y77931D01*
X153706D01*
Y77828D01*
Y77724D01*
Y77621D01*
X153809D01*
Y77518D01*
Y77415D01*
Y77312D01*
X153912D01*
Y77209D01*
Y77106D01*
Y77003D01*
X154016D01*
Y76900D01*
Y76797D01*
Y76694D01*
Y76591D01*
X154119D01*
Y76488D01*
Y76385D01*
Y76281D01*
Y76178D01*
X154222D01*
Y76075D01*
Y75972D01*
Y75869D01*
Y75766D01*
Y75663D01*
X154325D01*
Y75560D01*
Y75457D01*
Y75354D01*
Y75251D01*
Y75148D01*
Y75045D01*
X154428D01*
Y74942D01*
Y74839D01*
Y74735D01*
Y74632D01*
Y74529D01*
Y74426D01*
Y74323D01*
Y74220D01*
X154531D01*
Y74117D01*
Y74014D01*
Y73911D01*
Y73808D01*
Y73705D01*
Y73602D01*
Y73499D01*
Y73396D01*
Y73292D01*
Y73189D01*
Y73086D01*
Y72983D01*
Y72880D01*
Y72777D01*
Y72674D01*
Y72571D01*
Y72468D01*
Y72365D01*
Y72262D01*
Y72159D01*
Y72056D01*
Y71953D01*
Y71850D01*
Y71746D01*
Y71643D01*
Y71540D01*
Y71437D01*
Y71334D01*
Y71231D01*
Y71128D01*
Y71025D01*
Y70922D01*
X154428D01*
Y70819D01*
Y70716D01*
Y70613D01*
Y70510D01*
Y70407D01*
Y70303D01*
Y70200D01*
X154325D01*
Y70097D01*
Y69994D01*
Y69891D01*
Y69788D01*
Y69685D01*
Y69582D01*
X154222D01*
Y69479D01*
Y69376D01*
Y69273D01*
Y69170D01*
Y69067D01*
X154119D01*
Y68963D01*
Y68861D01*
Y68757D01*
Y68654D01*
X154016D01*
Y68551D01*
Y68448D01*
Y68345D01*
Y68242D01*
X153912D01*
Y68139D01*
Y68036D01*
Y67933D01*
X153809D01*
Y67830D01*
Y67727D01*
Y67624D01*
X153706D01*
Y67521D01*
Y67418D01*
Y67314D01*
X153603D01*
Y67211D01*
Y67108D01*
Y67005D01*
X153500D01*
Y66902D01*
Y66799D01*
Y66696D01*
X153397D01*
Y66593D01*
Y66490D01*
X153294D01*
Y66387D01*
Y66284D01*
X153191D01*
Y66181D01*
Y66078D01*
Y65974D01*
X153088D01*
Y65872D01*
Y65768D01*
X152985D01*
Y65665D01*
Y65562D01*
X152882D01*
Y65459D01*
Y65356D01*
X152779D01*
Y65253D01*
Y65150D01*
X152676D01*
Y65047D01*
Y64944D01*
X152573D01*
Y64841D01*
X152469D01*
Y64738D01*
Y64635D01*
X152366D01*
Y64532D01*
Y64429D01*
X152263D01*
Y64325D01*
X152160D01*
Y64222D01*
Y64119D01*
X152057D01*
Y64016D01*
Y63913D01*
X151954D01*
Y63810D01*
X151851D01*
Y63707D01*
Y63604D01*
X151748D01*
Y63501D01*
X151645D01*
Y63398D01*
X151542D01*
Y63295D01*
Y63192D01*
X151439D01*
Y63089D01*
X151336D01*
Y62985D01*
Y62882D01*
X151233D01*
Y62779D01*
X151129D01*
Y62676D01*
X151026D01*
Y62573D01*
X150923D01*
Y62470D01*
X150820D01*
Y62367D01*
Y62264D01*
X150717D01*
Y62161D01*
X150614D01*
Y62058D01*
X150511D01*
Y61955D01*
X150408D01*
Y61852D01*
X150305D01*
Y61749D01*
X150202D01*
Y61646D01*
X150099D01*
Y61543D01*
X149996D01*
Y61440D01*
X149893D01*
Y61336D01*
X149790D01*
Y61233D01*
X149687D01*
Y61130D01*
X149583D01*
Y61027D01*
X149480D01*
Y60924D01*
X149377D01*
Y60821D01*
X149274D01*
Y60718D01*
X149171D01*
Y60615D01*
X149068D01*
Y60512D01*
X148862D01*
Y60409D01*
X148759D01*
Y60306D01*
X148656D01*
Y60203D01*
X148553D01*
Y60100D01*
X148347D01*
Y59996D01*
X148244D01*
Y59894D01*
X148141D01*
Y59790D01*
X147934D01*
Y59687D01*
X147831D01*
Y59584D01*
X147625D01*
Y59481D01*
X147522D01*
Y59378D01*
X147316D01*
Y59275D01*
X147110D01*
Y59172D01*
X147007D01*
Y59069D01*
X146801D01*
Y58966D01*
X146595D01*
Y58863D01*
X146388D01*
Y58760D01*
X146285D01*
Y58657D01*
X146079D01*
Y58554D01*
X145770D01*
Y58451D01*
X145564D01*
Y58347D01*
X145358D01*
Y58244D01*
X145151D01*
Y58141D01*
X144842D01*
Y58038D01*
X144636D01*
Y57935D01*
X144327D01*
Y57832D01*
X144018D01*
Y57729D01*
X143709D01*
Y57626D01*
X143296D01*
Y57523D01*
X142987D01*
Y57420D01*
X142472D01*
Y57317D01*
X142060D01*
Y57214D01*
X141441D01*
Y57111D01*
X140617D01*
Y57007D01*
X136906D01*
Y57111D01*
X136081D01*
Y57214D01*
X135463D01*
Y57317D01*
X134948D01*
Y57420D01*
X134535D01*
Y57523D01*
X134123D01*
Y57626D01*
X133711D01*
Y57729D01*
X133402D01*
Y57832D01*
X133092D01*
Y57935D01*
X132783D01*
Y58038D01*
X132474D01*
Y58141D01*
X132165D01*
Y58244D01*
X131959D01*
Y58347D01*
X131649D01*
Y58451D01*
X131443D01*
Y58554D01*
X131134D01*
Y58657D01*
X130928D01*
Y58760D01*
X130722D01*
Y58863D01*
X130516D01*
Y58966D01*
X130309D01*
Y59069D01*
X130103D01*
Y59172D01*
X129897D01*
Y59275D01*
X129691D01*
Y59378D01*
X129485D01*
Y59481D01*
X129279D01*
Y59584D01*
X129073D01*
Y59687D01*
X128970D01*
Y59790D01*
X128763D01*
Y59894D01*
X128660D01*
Y59996D01*
X128557D01*
Y60100D01*
Y60203D01*
X128454D01*
Y60306D01*
X128351D01*
Y60409D01*
Y60512D01*
X128248D01*
Y60615D01*
Y60718D01*
Y60821D01*
X128145D01*
Y60924D01*
Y61027D01*
Y61130D01*
Y61233D01*
Y61336D01*
X128042D01*
Y61440D01*
Y61543D01*
Y61646D01*
Y61749D01*
Y61852D01*
Y61955D01*
Y62058D01*
Y62161D01*
Y62264D01*
Y62367D01*
Y62470D01*
Y62573D01*
Y62676D01*
Y62779D01*
Y62882D01*
Y62985D01*
Y63089D01*
Y63192D01*
Y63295D01*
Y63398D01*
Y63501D01*
Y63604D01*
Y63707D01*
Y63810D01*
Y63913D01*
Y64016D01*
Y64119D01*
Y64222D01*
Y64325D01*
Y64429D01*
Y64532D01*
Y64635D01*
Y64738D01*
Y64841D01*
Y64944D01*
Y65047D01*
Y65150D01*
Y65253D01*
Y65356D01*
Y65459D01*
Y65562D01*
Y65665D01*
Y65768D01*
Y65872D01*
Y65974D01*
Y66078D01*
Y66181D01*
Y66284D01*
Y66387D01*
Y66490D01*
Y66593D01*
Y66696D01*
Y66799D01*
Y66902D01*
Y67005D01*
Y67108D01*
Y67211D01*
Y67314D01*
Y67418D01*
Y67521D01*
Y67624D01*
Y67727D01*
Y67830D01*
Y67933D01*
Y68036D01*
Y68139D01*
Y68242D01*
Y68345D01*
Y68448D01*
Y68551D01*
Y68654D01*
Y68757D01*
Y68861D01*
Y68963D01*
Y69067D01*
Y69170D01*
Y69273D01*
Y69376D01*
Y69479D01*
Y69582D01*
Y69685D01*
Y69788D01*
Y69891D01*
Y69994D01*
Y70097D01*
Y70200D01*
Y70303D01*
Y70407D01*
Y70510D01*
Y70613D01*
Y70716D01*
Y70819D01*
Y70922D01*
Y71025D01*
Y71128D01*
Y71231D01*
Y71334D01*
Y71437D01*
Y71540D01*
X128145D01*
Y71643D01*
Y71746D01*
Y71850D01*
Y71953D01*
Y72056D01*
X128248D01*
Y72159D01*
Y72262D01*
Y72365D01*
X128351D01*
Y72468D01*
Y72571D01*
X128454D01*
Y72674D01*
X128557D01*
Y72777D01*
X128660D01*
Y72880D01*
Y72983D01*
X128867D01*
Y73086D01*
X128970D01*
Y73189D01*
X129073D01*
Y73292D01*
X129279D01*
Y73396D01*
X129588D01*
Y73499D01*
X130000D01*
Y73602D01*
X137937D01*
Y73499D01*
X138452D01*
Y73396D01*
X138658D01*
Y73292D01*
X138864D01*
Y73189D01*
X138967D01*
Y73086D01*
X139173D01*
Y72983D01*
X139277D01*
Y72880D01*
X139380D01*
Y72777D01*
X139483D01*
Y72674D01*
Y72571D01*
X139586D01*
Y72468D01*
Y72365D01*
X139689D01*
Y72262D01*
Y72159D01*
X139792D01*
Y72056D01*
Y71953D01*
Y71850D01*
Y71746D01*
X139895D01*
Y71643D01*
Y71540D01*
Y71437D01*
Y71334D01*
Y71231D01*
Y71128D01*
X139792D01*
Y71025D01*
Y70922D01*
Y70819D01*
Y70716D01*
X139689D01*
Y70613D01*
Y70510D01*
X139586D01*
Y70407D01*
Y70303D01*
X139483D01*
Y70200D01*
X139380D01*
Y70097D01*
X139277D01*
Y69994D01*
X139173D01*
Y69891D01*
X139070D01*
Y69788D01*
X138967D01*
Y69685D01*
X138761D01*
Y69582D01*
X138555D01*
Y69479D01*
X138349D01*
Y69376D01*
X132371D01*
Y69273D01*
X132268D01*
Y69170D01*
Y69067D01*
Y68963D01*
Y68861D01*
Y68757D01*
Y68654D01*
Y68551D01*
Y68448D01*
Y68345D01*
Y68242D01*
Y68139D01*
Y68036D01*
Y67933D01*
Y67830D01*
Y67727D01*
Y67624D01*
Y67521D01*
Y67418D01*
Y67314D01*
Y67211D01*
Y67108D01*
Y67005D01*
Y66902D01*
Y66799D01*
Y66696D01*
Y66593D01*
Y66490D01*
Y66387D01*
Y66284D01*
Y66181D01*
Y66078D01*
Y65974D01*
Y65872D01*
Y65768D01*
Y65665D01*
Y65562D01*
Y65459D01*
Y65356D01*
Y65253D01*
Y65150D01*
Y65047D01*
Y64944D01*
Y64841D01*
Y64738D01*
Y64635D01*
Y64532D01*
Y64429D01*
Y64325D01*
Y64222D01*
Y64119D01*
Y64016D01*
Y63913D01*
Y63810D01*
Y63707D01*
Y63604D01*
Y63501D01*
Y63398D01*
Y63295D01*
Y63192D01*
Y63089D01*
Y62985D01*
Y62882D01*
Y62779D01*
Y62676D01*
X132474D01*
Y62573D01*
X132680D01*
Y62470D01*
X132886D01*
Y62367D01*
X133195D01*
Y62264D01*
X133402D01*
Y62161D01*
X133711D01*
Y62058D01*
X133917D01*
Y61955D01*
X134226D01*
Y61852D01*
X134535D01*
Y61749D01*
X134948D01*
Y61646D01*
X135360D01*
Y61543D01*
X135772D01*
Y61440D01*
X136288D01*
Y61336D01*
X137009D01*
Y61233D01*
X138349D01*
Y61130D01*
X139173D01*
Y61233D01*
X140513D01*
Y61336D01*
X141235D01*
Y61440D01*
X141750D01*
Y61543D01*
X142163D01*
Y61646D01*
X142472D01*
Y61749D01*
X142781D01*
Y61852D01*
X143090D01*
Y61955D01*
X143399D01*
Y62058D01*
X143605D01*
Y62161D01*
X143812D01*
Y62264D01*
X144018D01*
Y62367D01*
X144224D01*
Y62470D01*
X144430D01*
Y62573D01*
X144636D01*
Y62676D01*
X144842D01*
Y62779D01*
X145048D01*
Y62882D01*
X145151D01*
Y62985D01*
X145358D01*
Y63089D01*
X145461D01*
Y63192D01*
X145667D01*
Y63295D01*
X145770D01*
Y63398D01*
X145873D01*
Y63501D01*
X146079D01*
Y63604D01*
X146182D01*
Y63707D01*
X146285D01*
Y63810D01*
X146388D01*
Y63913D01*
X146491D01*
Y64016D01*
X146595D01*
Y64119D01*
X146801D01*
Y64222D01*
X146904D01*
Y64325D01*
X147007D01*
Y64429D01*
X147110D01*
Y64532D01*
X147213D01*
Y64635D01*
X147316D01*
Y64738D01*
X147419D01*
Y64841D01*
Y64944D01*
X147522D01*
Y65047D01*
X147625D01*
Y65150D01*
X147728D01*
Y65253D01*
X147831D01*
Y65356D01*
X147934D01*
Y65459D01*
Y65562D01*
X148038D01*
Y65665D01*
X148141D01*
Y65768D01*
X148244D01*
Y65872D01*
Y65974D01*
X148347D01*
Y66078D01*
X148450D01*
Y66181D01*
Y66284D01*
X148553D01*
Y66387D01*
X148656D01*
Y66490D01*
Y66593D01*
X148759D01*
Y66696D01*
Y66799D01*
X148862D01*
Y66902D01*
X148965D01*
Y67005D01*
Y67108D01*
X149068D01*
Y67211D01*
Y67314D01*
X149171D01*
Y67418D01*
Y67521D01*
X149274D01*
Y67624D01*
Y67727D01*
X149377D01*
Y67830D01*
Y67933D01*
Y68036D01*
X149480D01*
Y68139D01*
Y68242D01*
X149583D01*
Y68345D01*
Y68448D01*
X149687D01*
Y68551D01*
Y68654D01*
Y68757D01*
X149790D01*
Y68861D01*
Y68963D01*
Y69067D01*
X149893D01*
Y69170D01*
Y69273D01*
Y69376D01*
Y69479D01*
X149996D01*
Y69582D01*
Y69685D01*
Y69788D01*
Y69891D01*
X150099D01*
Y69994D01*
Y70097D01*
Y70200D01*
Y70303D01*
X150202D01*
Y70407D01*
Y70510D01*
Y70613D01*
Y70716D01*
Y70819D01*
Y70922D01*
Y71025D01*
X150305D01*
Y71128D01*
Y71231D01*
Y71334D01*
Y71437D01*
Y71540D01*
Y71643D01*
Y71746D01*
Y71850D01*
Y71953D01*
Y72056D01*
Y72159D01*
Y72262D01*
Y72365D01*
Y72468D01*
X150408D01*
Y72571D01*
Y72674D01*
Y72777D01*
X150305D01*
Y72880D01*
Y72983D01*
Y73086D01*
Y73189D01*
Y73292D01*
Y73396D01*
Y73499D01*
Y73602D01*
Y73705D01*
Y73808D01*
Y73911D01*
Y74014D01*
Y74117D01*
Y74220D01*
X150202D01*
Y74323D01*
Y74426D01*
Y74529D01*
Y74632D01*
Y74735D01*
Y74839D01*
X150099D01*
Y74942D01*
Y75045D01*
Y75148D01*
Y75251D01*
Y75354D01*
X149996D01*
Y75457D01*
Y75560D01*
Y75663D01*
Y75766D01*
X149893D01*
Y75869D01*
Y75972D01*
Y76075D01*
Y76178D01*
X149790D01*
Y76281D01*
Y76385D01*
Y76488D01*
X149687D01*
Y76591D01*
Y76694D01*
X149583D01*
Y76797D01*
Y76900D01*
Y77003D01*
X149480D01*
Y77106D01*
Y77209D01*
X149377D01*
Y77312D01*
Y77415D01*
Y77518D01*
X149274D01*
Y77621D01*
Y77724D01*
X149171D01*
Y77828D01*
Y77931D01*
X149068D01*
Y78034D01*
Y78137D01*
X148965D01*
Y78240D01*
Y78343D01*
X148862D01*
Y78446D01*
X148759D01*
Y78549D01*
Y78652D01*
X148656D01*
Y78755D01*
Y78858D01*
X148553D01*
Y78961D01*
X148450D01*
Y79064D01*
Y79167D01*
X148347D01*
Y79270D01*
X148244D01*
Y79374D01*
Y79477D01*
X148141D01*
Y79580D01*
X148038D01*
Y79683D01*
X147934D01*
Y79786D01*
Y79889D01*
X147831D01*
Y79992D01*
X147728D01*
Y80095D01*
X147625D01*
Y80198D01*
X147522D01*
Y80301D01*
Y80404D01*
X147419D01*
Y80507D01*
X147316D01*
Y80610D01*
X147213D01*
Y80713D01*
X147110D01*
Y80817D01*
X147007D01*
Y80920D01*
X146904D01*
Y81023D01*
X146801D01*
Y81126D01*
X146698D01*
Y81229D01*
X146595D01*
Y81332D01*
X146491D01*
Y81435D01*
X146388D01*
Y81538D01*
X146182D01*
Y81641D01*
X146079D01*
Y81744D01*
X145976D01*
Y81847D01*
X145873D01*
Y81950D01*
X145667D01*
Y82053D01*
X145564D01*
Y82156D01*
X145461D01*
Y82260D01*
X145255D01*
Y82363D01*
X145151D01*
Y82466D01*
X144945D01*
Y82569D01*
X144842D01*
Y82672D01*
X144636D01*
Y82775D01*
X144430D01*
Y82878D01*
X144224D01*
Y82981D01*
X144121D01*
Y83084D01*
X143915D01*
Y83187D01*
X143709D01*
Y83290D01*
X143502D01*
Y83393D01*
X143193D01*
Y83496D01*
X142987D01*
Y83599D01*
X142678D01*
Y83702D01*
X142472D01*
Y83806D01*
X142163D01*
Y83909D01*
X141750D01*
Y84012D01*
X141338D01*
Y84115D01*
X140823D01*
Y84218D01*
X139895D01*
Y84321D01*
X138143D01*
Y84218D01*
X137318D01*
Y84115D01*
X136700D01*
Y84012D01*
X136185D01*
Y83909D01*
X135772D01*
Y83806D01*
X135463D01*
Y83702D01*
X135154D01*
Y83599D01*
X134845D01*
Y83496D01*
X134535D01*
Y83393D01*
X134226D01*
Y83290D01*
X134020D01*
Y83187D01*
X133711D01*
Y83084D01*
X133505D01*
Y82981D01*
X133299D01*
Y82878D01*
X133092D01*
Y82775D01*
X132886D01*
Y82672D01*
X132680D01*
Y82569D01*
X132474D01*
Y82466D01*
X132268D01*
Y82363D01*
X132062D01*
Y82260D01*
X131856D01*
Y82156D01*
X131649D01*
Y82053D01*
X131443D01*
Y81950D01*
X131340D01*
Y81847D01*
X131134D01*
Y81744D01*
X130928D01*
Y81641D01*
X130825D01*
Y81538D01*
X130619D01*
Y81435D01*
X130413D01*
Y81332D01*
X130207D01*
Y81229D01*
X130000D01*
Y81126D01*
X129382D01*
Y81023D01*
X129279D01*
Y81126D01*
X128763D01*
Y81229D01*
X128454D01*
Y81332D01*
X128248D01*
Y81435D01*
X128145D01*
Y81538D01*
X127939D01*
Y81641D01*
X127836D01*
Y81744D01*
X127733D01*
Y81847D01*
Y81950D01*
X127630D01*
Y82053D01*
X127527D01*
Y82156D01*
Y82260D01*
X127424D01*
Y82363D01*
Y82466D01*
X127321D01*
Y82569D01*
Y82672D01*
Y82775D01*
Y82878D01*
X127217D01*
Y82981D01*
Y83084D01*
Y83187D01*
Y83290D01*
Y83393D01*
X127321D01*
Y83496D01*
Y83599D01*
Y83702D01*
Y83806D01*
X127424D01*
Y83909D01*
Y84012D01*
Y84115D01*
X127527D01*
Y84218D01*
Y84321D01*
X127630D01*
Y84424D01*
X127733D01*
Y84527D01*
X127836D01*
Y84630D01*
X127939D01*
Y84733D01*
X128042D01*
Y84836D01*
X128145D01*
Y84939D01*
X128248D01*
Y85042D01*
X128454D01*
Y85145D01*
X128660D01*
Y85249D01*
X128763D01*
Y85352D01*
X128970D01*
Y85455D01*
X129176D01*
Y85558D01*
X129279D01*
Y85661D01*
X129485D01*
Y85764D01*
X129691D01*
Y85867D01*
X129897D01*
Y85970D01*
X130103D01*
Y86073D01*
X130309D01*
Y86176D01*
X130516D01*
Y86279D01*
X130722D01*
Y86382D01*
X130928D01*
Y86485D01*
X131134D01*
Y86588D01*
X131340D01*
Y86691D01*
X131546D01*
Y86795D01*
X131753D01*
Y86898D01*
X131959D01*
Y87001D01*
X132268D01*
Y87104D01*
X132474D01*
Y87207D01*
X132783D01*
Y87310D01*
X132989D01*
Y87413D01*
X133299D01*
Y87516D01*
X133608D01*
Y87619D01*
X133917D01*
Y87722D01*
X134226D01*
Y87825D01*
X134639D01*
Y87928D01*
X134948D01*
Y88031D01*
X135360D01*
Y88134D01*
X135875D01*
Y88238D01*
X136391D01*
Y88341D01*
X137009D01*
Y88444D01*
X138040D01*
Y88547D01*
X139998D01*
Y88444D01*
D02*
G37*
G36*
X96915Y88547D02*
X97946D01*
Y88444D01*
X98667D01*
Y88341D01*
X99183D01*
Y88238D01*
X99698D01*
Y88134D01*
X100110D01*
Y88031D01*
X100522D01*
Y87928D01*
X100832D01*
Y87825D01*
X101141D01*
Y87722D01*
X101450D01*
Y87619D01*
X101759D01*
Y87516D01*
X102069D01*
Y87413D01*
X102378D01*
Y87310D01*
X102584D01*
Y87207D01*
X102893D01*
Y87104D01*
X103099D01*
Y87001D01*
X103409D01*
Y86898D01*
X103615D01*
Y86795D01*
X103821D01*
Y86691D01*
X104027D01*
Y86588D01*
X104233D01*
Y86485D01*
X104439D01*
Y86382D01*
X104645D01*
Y86279D01*
X104851D01*
Y86176D01*
X105058D01*
Y86073D01*
X105264D01*
Y85970D01*
X105470D01*
Y85867D01*
X105573D01*
Y85764D01*
X105779D01*
Y85661D01*
X105985D01*
Y85558D01*
X106088D01*
Y85455D01*
X106294D01*
Y85352D01*
X106500D01*
Y85249D01*
X106604D01*
Y85145D01*
X106810D01*
Y85042D01*
X106913D01*
Y84939D01*
X107119D01*
Y84836D01*
X107222D01*
Y84733D01*
X107428D01*
Y84630D01*
X107531D01*
Y84527D01*
X107737D01*
Y84424D01*
X107841D01*
Y84321D01*
X108047D01*
Y84218D01*
X108150D01*
Y84115D01*
X108253D01*
Y84012D01*
X108459D01*
Y83909D01*
X108562D01*
Y83806D01*
X108665D01*
Y83702D01*
X108871D01*
Y83599D01*
X108974D01*
Y83496D01*
X109077D01*
Y83393D01*
X109283D01*
Y83290D01*
X109387D01*
Y83187D01*
X109490D01*
Y83084D01*
X109593D01*
Y82981D01*
X109799D01*
Y82878D01*
X109902D01*
Y82775D01*
X110005D01*
Y82672D01*
X110108D01*
Y82569D01*
X110314D01*
Y82466D01*
X110417D01*
Y82363D01*
X110520D01*
Y82260D01*
X110623D01*
Y82156D01*
X110726D01*
Y82053D01*
X110829D01*
Y81950D01*
X111036D01*
Y81847D01*
X111139D01*
Y81744D01*
X111242D01*
Y81641D01*
X111345D01*
Y81538D01*
X111448D01*
Y81435D01*
X111551D01*
Y81332D01*
X111654D01*
Y81229D01*
X111860D01*
Y81126D01*
X111963D01*
Y81023D01*
X112066D01*
Y80920D01*
X112169D01*
Y80817D01*
X112272D01*
Y80713D01*
X112375D01*
Y80610D01*
X112479D01*
Y80507D01*
X112582D01*
Y80404D01*
X112685D01*
Y80301D01*
X112788D01*
Y80198D01*
X112891D01*
Y80095D01*
X113097D01*
Y79992D01*
X113200D01*
Y79889D01*
X113303D01*
Y79786D01*
X113406D01*
Y79683D01*
X113509D01*
Y79580D01*
X113612D01*
Y79477D01*
X113715D01*
Y79374D01*
X113819D01*
Y79270D01*
X113921D01*
Y79167D01*
X114025D01*
Y79064D01*
X114128D01*
Y78961D01*
X114231D01*
Y78858D01*
X114334D01*
Y78755D01*
X114437D01*
Y78652D01*
X114540D01*
Y78549D01*
X114643D01*
Y78446D01*
X114746D01*
Y78343D01*
X114849D01*
Y78240D01*
X114952D01*
Y78137D01*
X115055D01*
Y78034D01*
X115158D01*
Y77931D01*
X115261D01*
Y77828D01*
X115365D01*
Y77724D01*
X115468D01*
Y77621D01*
X115571D01*
Y77518D01*
X115674D01*
Y77415D01*
X115777D01*
Y77312D01*
X115880D01*
Y77209D01*
X115983D01*
Y77106D01*
X116086D01*
Y77003D01*
X116189D01*
Y76900D01*
X116292D01*
Y76797D01*
X116395D01*
Y76694D01*
X116498D01*
Y76591D01*
X116601D01*
Y76488D01*
X116704D01*
Y76385D01*
X116807D01*
Y76281D01*
X116911D01*
Y76178D01*
X117014D01*
Y76075D01*
X117117D01*
Y75972D01*
X117220D01*
Y75869D01*
X117426D01*
Y75972D01*
X117529D01*
Y76075D01*
X117632D01*
Y76178D01*
X117735D01*
Y76281D01*
X117838D01*
Y76385D01*
X117941D01*
Y76488D01*
X118044D01*
Y76591D01*
X118147D01*
Y76694D01*
X118251D01*
Y76797D01*
X118353D01*
Y76900D01*
X118457D01*
Y77003D01*
X118560D01*
Y77106D01*
X118663D01*
Y77209D01*
X118766D01*
Y77312D01*
X118869D01*
Y77415D01*
X119075D01*
Y77518D01*
X119178D01*
Y77621D01*
X119281D01*
Y77724D01*
X119384D01*
Y77828D01*
X119487D01*
Y77931D01*
X119590D01*
Y78034D01*
X119693D01*
Y78137D01*
X119797D01*
Y78240D01*
X119900D01*
Y78343D01*
X120003D01*
Y78446D01*
X120106D01*
Y78549D01*
X120209D01*
Y78652D01*
X120415D01*
Y78755D01*
X120518D01*
Y78858D01*
X120621D01*
Y78961D01*
X120724D01*
Y79064D01*
X120827D01*
Y79167D01*
X120930D01*
Y79270D01*
X121033D01*
Y79374D01*
X121136D01*
Y79477D01*
X121239D01*
Y79580D01*
X121343D01*
Y79683D01*
X121549D01*
Y79786D01*
X121652D01*
Y79889D01*
X121755D01*
Y79992D01*
X121858D01*
Y80095D01*
X121961D01*
Y80198D01*
X122064D01*
Y80301D01*
X122167D01*
Y80404D01*
X122270D01*
Y80507D01*
X122476D01*
Y80610D01*
X122579D01*
Y80713D01*
X122682D01*
Y80817D01*
X122785D01*
Y80920D01*
X122889D01*
Y81023D01*
X122992D01*
Y81126D01*
X123095D01*
Y81229D01*
X123301D01*
Y81332D01*
X123404D01*
Y81435D01*
X123507D01*
Y81538D01*
X123610D01*
Y81641D01*
X123713D01*
Y81744D01*
X123816D01*
Y81847D01*
X124022D01*
Y81950D01*
X124125D01*
Y82053D01*
X124229D01*
Y82156D01*
X124331D01*
Y82260D01*
X124435D01*
Y82363D01*
X124641D01*
Y82466D01*
X124744D01*
Y82569D01*
X124847D01*
Y82672D01*
X124950D01*
Y82775D01*
X125156D01*
Y82878D01*
X125259D01*
Y82981D01*
X125362D01*
Y83084D01*
X125465D01*
Y83187D01*
X125672D01*
Y83290D01*
X125775D01*
Y83393D01*
X125878D01*
Y83496D01*
X126084D01*
Y83599D01*
X126187D01*
Y83702D01*
X126290D01*
Y83806D01*
X126496D01*
Y83909D01*
X126599D01*
Y84012D01*
X126702D01*
Y84115D01*
X126908D01*
Y84218D01*
X127011D01*
Y84321D01*
X127114D01*
Y84218D01*
Y84115D01*
X127011D01*
Y84012D01*
Y83909D01*
Y83806D01*
X126908D01*
Y83702D01*
Y83599D01*
Y83496D01*
Y83393D01*
Y83290D01*
Y83187D01*
Y83084D01*
Y82981D01*
Y82878D01*
Y82775D01*
Y82672D01*
Y82569D01*
X127011D01*
Y82466D01*
Y82363D01*
Y82260D01*
X127114D01*
Y82156D01*
Y82053D01*
X127217D01*
Y81950D01*
Y81847D01*
X127321D01*
Y81744D01*
Y81641D01*
X127424D01*
Y81538D01*
X127527D01*
Y81435D01*
X127630D01*
Y81332D01*
X127733D01*
Y81229D01*
X127836D01*
Y81126D01*
X128042D01*
Y81023D01*
X128248D01*
Y80920D01*
X128454D01*
Y80817D01*
X128763D01*
Y80713D01*
X129279D01*
Y80610D01*
X129176D01*
Y80507D01*
X128970D01*
Y80404D01*
X128867D01*
Y80301D01*
X128763D01*
Y80198D01*
X128557D01*
Y80095D01*
X128454D01*
Y79992D01*
X128351D01*
Y79889D01*
X128145D01*
Y79786D01*
X128042D01*
Y79683D01*
X127939D01*
Y79580D01*
X127836D01*
Y79477D01*
X127630D01*
Y79374D01*
X127527D01*
Y79270D01*
X127424D01*
Y79167D01*
X127321D01*
Y79064D01*
X127114D01*
Y78961D01*
X127011D01*
Y78858D01*
X126908D01*
Y78755D01*
X126805D01*
Y78652D01*
X126702D01*
Y78549D01*
X126599D01*
Y78446D01*
X126393D01*
Y78343D01*
X126290D01*
Y78240D01*
X126187D01*
Y78137D01*
X126084D01*
Y78034D01*
X125981D01*
Y77931D01*
X125878D01*
Y77828D01*
X125672D01*
Y77724D01*
X125568D01*
Y77621D01*
X125465D01*
Y77518D01*
X125362D01*
Y77415D01*
X125259D01*
Y77312D01*
X125156D01*
Y77209D01*
X125053D01*
Y77106D01*
X124847D01*
Y77003D01*
X124744D01*
Y76900D01*
X124641D01*
Y76797D01*
X124538D01*
Y76694D01*
X124435D01*
Y76591D01*
X124331D01*
Y76488D01*
X124229D01*
Y76385D01*
X124125D01*
Y76281D01*
X123919D01*
Y76178D01*
X123816D01*
Y76075D01*
X123713D01*
Y75972D01*
X123610D01*
Y75869D01*
X123507D01*
Y75766D01*
X123404D01*
Y75663D01*
X123301D01*
Y75560D01*
X123198D01*
Y75457D01*
X123095D01*
Y75354D01*
X122992D01*
Y75251D01*
X122889D01*
Y75148D01*
X122682D01*
Y75045D01*
X122579D01*
Y74942D01*
X122476D01*
Y74839D01*
X122373D01*
Y74735D01*
X122270D01*
Y74632D01*
X122167D01*
Y74529D01*
X122064D01*
Y74426D01*
X121961D01*
Y74323D01*
X121858D01*
Y74220D01*
X121755D01*
Y74117D01*
X121652D01*
Y74014D01*
X121549D01*
Y73911D01*
X121446D01*
Y73808D01*
X121239D01*
Y73705D01*
X121136D01*
Y73602D01*
X121033D01*
Y73499D01*
X120930D01*
Y73396D01*
X120827D01*
Y73292D01*
X120724D01*
Y73189D01*
X120621D01*
Y73086D01*
X120518D01*
Y72983D01*
X120415D01*
Y72880D01*
X120312D01*
Y72777D01*
Y72674D01*
Y72571D01*
X120415D01*
Y72468D01*
X120518D01*
Y72365D01*
X120621D01*
Y72262D01*
X120724D01*
Y72159D01*
X120827D01*
Y72056D01*
X120930D01*
Y71953D01*
X121033D01*
Y71850D01*
X121136D01*
Y71746D01*
X121239D01*
Y71643D01*
X121343D01*
Y71540D01*
X121446D01*
Y71437D01*
X121549D01*
Y71334D01*
X121652D01*
Y71231D01*
X121755D01*
Y71128D01*
X121858D01*
Y71025D01*
X121961D01*
Y70922D01*
X122064D01*
Y70819D01*
X122167D01*
Y70716D01*
X122270D01*
Y70613D01*
X122373D01*
Y70510D01*
X122476D01*
Y70407D01*
X122579D01*
Y70303D01*
X122682D01*
Y70200D01*
X122785D01*
Y70097D01*
X122889D01*
Y69994D01*
X122992D01*
Y69891D01*
X123095D01*
Y69788D01*
X123198D01*
Y69685D01*
X123301D01*
Y69582D01*
X123404D01*
Y69479D01*
X123507D01*
Y69376D01*
X123610D01*
Y69273D01*
X123713D01*
Y69170D01*
X123816D01*
Y69067D01*
X123919D01*
Y68963D01*
X124022D01*
Y68861D01*
X124125D01*
Y68757D01*
X124229D01*
Y68654D01*
X124331D01*
Y68551D01*
X124435D01*
Y68448D01*
X124538D01*
Y68345D01*
X124641D01*
Y68242D01*
X124744D01*
Y68139D01*
X124847D01*
Y68036D01*
X124950D01*
Y67933D01*
X125053D01*
Y67830D01*
X125156D01*
Y67727D01*
X125259D01*
Y67624D01*
X125465D01*
Y67521D01*
X125568D01*
Y67418D01*
X125672D01*
Y67314D01*
X125775D01*
Y67211D01*
X125878D01*
Y67108D01*
X125981D01*
Y67005D01*
X126084D01*
Y66902D01*
X126187D01*
Y66799D01*
X126290D01*
Y66696D01*
X126496D01*
Y66593D01*
X126599D01*
Y66490D01*
X126702D01*
Y66387D01*
X126805D01*
Y66284D01*
X126908D01*
Y66181D01*
X127011D01*
Y66078D01*
X127217D01*
Y65974D01*
X127321D01*
Y65872D01*
X127424D01*
Y65768D01*
X127527D01*
Y65665D01*
X127733D01*
Y65562D01*
Y65459D01*
Y65356D01*
Y65253D01*
Y65150D01*
Y65047D01*
Y64944D01*
Y64841D01*
Y64738D01*
Y64635D01*
Y64532D01*
Y64429D01*
Y64325D01*
Y64222D01*
Y64119D01*
Y64016D01*
Y63913D01*
Y63810D01*
Y63707D01*
Y63604D01*
Y63501D01*
Y63398D01*
Y63295D01*
Y63192D01*
Y63089D01*
Y62985D01*
Y62882D01*
Y62779D01*
Y62676D01*
Y62573D01*
Y62470D01*
Y62367D01*
Y62264D01*
Y62161D01*
Y62058D01*
Y61955D01*
Y61852D01*
Y61749D01*
Y61646D01*
Y61543D01*
Y61440D01*
Y61336D01*
Y61233D01*
Y61130D01*
Y61027D01*
Y60924D01*
Y60821D01*
X127836D01*
Y60718D01*
Y60615D01*
Y60512D01*
X127939D01*
Y60409D01*
Y60306D01*
X127836D01*
Y60409D01*
X127630D01*
Y60512D01*
X127424D01*
Y60615D01*
X127321D01*
Y60718D01*
X127114D01*
Y60821D01*
X127011D01*
Y60924D01*
X126805D01*
Y61027D01*
X126702D01*
Y61130D01*
X126496D01*
Y61233D01*
X126393D01*
Y61336D01*
X126187D01*
Y61440D01*
X126084D01*
Y61543D01*
X125981D01*
Y61646D01*
X125775D01*
Y61749D01*
X125672D01*
Y61852D01*
X125568D01*
Y61955D01*
X125362D01*
Y62058D01*
X125259D01*
Y62161D01*
X125156D01*
Y62264D01*
X125053D01*
Y62367D01*
X124847D01*
Y62470D01*
X124744D01*
Y62573D01*
X124641D01*
Y62676D01*
X124538D01*
Y62779D01*
X124331D01*
Y62882D01*
X124229D01*
Y62985D01*
X124125D01*
Y63089D01*
X124022D01*
Y63192D01*
X123919D01*
Y63295D01*
X123816D01*
Y63398D01*
X123610D01*
Y63501D01*
X123507D01*
Y63604D01*
X123404D01*
Y63707D01*
X123301D01*
Y63810D01*
X123198D01*
Y63913D01*
X123095D01*
Y64016D01*
X122992D01*
Y64119D01*
X122889D01*
Y64222D01*
X122682D01*
Y64325D01*
X122579D01*
Y64429D01*
X122476D01*
Y64532D01*
X122373D01*
Y64635D01*
X122270D01*
Y64738D01*
X122167D01*
Y64841D01*
X122064D01*
Y64944D01*
X121961D01*
Y65047D01*
X121858D01*
Y65150D01*
X121755D01*
Y65253D01*
X121652D01*
Y65356D01*
X121549D01*
Y65459D01*
X121446D01*
Y65562D01*
X121343D01*
Y65665D01*
X121136D01*
Y65768D01*
X121033D01*
Y65872D01*
X120930D01*
Y65974D01*
X120827D01*
Y66078D01*
X120724D01*
Y66181D01*
X120621D01*
Y66284D01*
X120518D01*
Y66387D01*
X120415D01*
Y66490D01*
X120312D01*
Y66593D01*
X120209D01*
Y66696D01*
X120106D01*
Y66799D01*
X120003D01*
Y66902D01*
X119900D01*
Y67005D01*
X119797D01*
Y67108D01*
X119693D01*
Y67211D01*
X119590D01*
Y67314D01*
X119487D01*
Y67418D01*
X119384D01*
Y67521D01*
X119281D01*
Y67624D01*
X119178D01*
Y67727D01*
X119075D01*
Y67830D01*
X118972D01*
Y67933D01*
X118869D01*
Y68036D01*
X118766D01*
Y68139D01*
X118663D01*
Y68242D01*
X118560D01*
Y68345D01*
Y68448D01*
X118457D01*
Y68551D01*
X118353D01*
Y68654D01*
X118251D01*
Y68757D01*
X118147D01*
Y68861D01*
X118044D01*
Y68963D01*
X117941D01*
Y69067D01*
X117838D01*
Y69170D01*
X117735D01*
Y69273D01*
X117632D01*
Y69376D01*
X117529D01*
Y69479D01*
X117426D01*
Y69582D01*
X117323D01*
Y69685D01*
X117220D01*
Y69788D01*
X117117D01*
Y69685D01*
X117014D01*
Y69582D01*
X116911D01*
Y69479D01*
X116704D01*
Y69376D01*
X116601D01*
Y69273D01*
X116498D01*
Y69170D01*
X116395D01*
Y69067D01*
X116292D01*
Y68963D01*
X116189D01*
Y68861D01*
X116086D01*
Y68757D01*
X115983D01*
Y68654D01*
X115880D01*
Y68551D01*
X115777D01*
Y68448D01*
X115674D01*
Y68345D01*
X115571D01*
Y68242D01*
X115468D01*
Y68139D01*
X115365D01*
Y68036D01*
X115261D01*
Y67933D01*
X115158D01*
Y67830D01*
X115055D01*
Y67727D01*
X114952D01*
Y67624D01*
X114849D01*
Y67521D01*
X114746D01*
Y67418D01*
X114643D01*
Y67314D01*
X114540D01*
Y67211D01*
X114437D01*
Y67108D01*
X114334D01*
Y67005D01*
X114231D01*
Y66902D01*
X114128D01*
Y66799D01*
X114025D01*
Y66696D01*
X113819D01*
Y66593D01*
X113715D01*
Y66490D01*
X113612D01*
Y66387D01*
X113509D01*
Y66284D01*
X113406D01*
Y66181D01*
X113303D01*
Y66078D01*
X113200D01*
Y65974D01*
X113097D01*
Y65872D01*
X112994D01*
Y65768D01*
X112891D01*
Y65665D01*
X112788D01*
Y65562D01*
X112685D01*
Y65459D01*
X112582D01*
Y65356D01*
X112479D01*
Y65253D01*
X112272D01*
Y65150D01*
X112169D01*
Y65047D01*
X112066D01*
Y64944D01*
X111963D01*
Y64841D01*
X111860D01*
Y64738D01*
X111654D01*
Y64635D01*
X111551D01*
Y64532D01*
X111448D01*
Y64429D01*
X111345D01*
Y64325D01*
X111242D01*
Y64222D01*
X111036D01*
Y64119D01*
X110933D01*
Y64016D01*
X110829D01*
Y63913D01*
X110726D01*
Y63810D01*
X110520D01*
Y63707D01*
X110417D01*
Y63604D01*
X110314D01*
Y63501D01*
X110211D01*
Y63398D01*
X110005D01*
Y63295D01*
X109902D01*
Y63192D01*
X109799D01*
Y63089D01*
X109593D01*
Y62985D01*
X109490D01*
Y62882D01*
X109387D01*
Y62779D01*
X109283D01*
Y62676D01*
X109077D01*
Y62573D01*
X108974D01*
Y62470D01*
X108871D01*
Y62367D01*
X108665D01*
Y62264D01*
X108562D01*
Y62161D01*
X108356D01*
Y62058D01*
X108253D01*
Y61955D01*
X108150D01*
Y61852D01*
X107943D01*
Y61749D01*
X107841D01*
Y61646D01*
X107634D01*
Y61543D01*
X107531D01*
Y61440D01*
X107325D01*
Y61336D01*
X107222D01*
Y61233D01*
X107016D01*
Y61130D01*
X106913D01*
Y61027D01*
X106707D01*
Y60924D01*
X106604D01*
Y60821D01*
X106397D01*
Y60718D01*
X106294D01*
Y60615D01*
X106088D01*
Y60512D01*
X105985D01*
Y60409D01*
X105779D01*
Y60306D01*
X105573D01*
Y60203D01*
X105470D01*
Y60100D01*
X105264D01*
Y59996D01*
X105058D01*
Y59894D01*
X104851D01*
Y59790D01*
X104748D01*
Y59687D01*
X104542D01*
Y59584D01*
X104336D01*
Y59481D01*
X104130D01*
Y59378D01*
X103924D01*
Y59275D01*
X103718D01*
Y59172D01*
X103512D01*
Y59069D01*
X103305D01*
Y58966D01*
X103099D01*
Y58863D01*
X102893D01*
Y58760D01*
X102584D01*
Y58657D01*
X102378D01*
Y58554D01*
X102172D01*
Y58451D01*
X101862D01*
Y58347D01*
X101656D01*
Y58244D01*
X101347D01*
Y58141D01*
X101038D01*
Y58038D01*
X100729D01*
Y57935D01*
X100419D01*
Y57832D01*
X100110D01*
Y57729D01*
X99801D01*
Y57626D01*
X99389D01*
Y57523D01*
X98976D01*
Y57420D01*
X98461D01*
Y57317D01*
X97946D01*
Y57214D01*
X97224D01*
Y57111D01*
X95884D01*
Y57007D01*
X94854D01*
Y57111D01*
X93617D01*
Y57214D01*
X92895D01*
Y57317D01*
X92380D01*
Y57420D01*
X91865D01*
Y57523D01*
X91452D01*
Y57626D01*
X91143D01*
Y57729D01*
X90834D01*
Y57832D01*
X90525D01*
Y57935D01*
X90216D01*
Y58038D01*
X89906D01*
Y58141D01*
X89700D01*
Y58244D01*
X89494D01*
Y58347D01*
X89185D01*
Y58451D01*
X88979D01*
Y58554D01*
X88773D01*
Y58657D01*
X88566D01*
Y58760D01*
X88360D01*
Y58863D01*
X88154D01*
Y58966D01*
X87948D01*
Y59069D01*
X87845D01*
Y59172D01*
X87639D01*
Y59275D01*
X87433D01*
Y59378D01*
X87330D01*
Y59481D01*
X87124D01*
Y59584D01*
X87020D01*
Y59687D01*
X86814D01*
Y59790D01*
X86711D01*
Y59894D01*
X86505D01*
Y59996D01*
X86402D01*
Y60100D01*
X86196D01*
Y60203D01*
X86093D01*
Y60306D01*
X85990D01*
Y60409D01*
X85887D01*
Y60512D01*
X85681D01*
Y60615D01*
X85577D01*
Y60718D01*
X85474D01*
Y60821D01*
X85371D01*
Y60924D01*
X85268D01*
Y61027D01*
X85062D01*
Y61130D01*
X84959D01*
Y61233D01*
X84856D01*
Y61336D01*
X84753D01*
Y61440D01*
X84650D01*
Y61543D01*
X84547D01*
Y61646D01*
X84444D01*
Y61749D01*
X84341D01*
Y61852D01*
X84238D01*
Y61955D01*
X84135D01*
Y62058D01*
X84031D01*
Y62161D01*
X83928D01*
Y62264D01*
X83825D01*
Y62367D01*
Y62470D01*
X83722D01*
Y62573D01*
X83619D01*
Y62676D01*
X83516D01*
Y62779D01*
X83413D01*
Y62882D01*
X83310D01*
Y62985D01*
Y63089D01*
X83207D01*
Y63192D01*
X83104D01*
Y63295D01*
X83001D01*
Y63398D01*
X82898D01*
Y63501D01*
Y63604D01*
X82795D01*
Y63707D01*
X82692D01*
Y63810D01*
Y63913D01*
X82588D01*
Y64016D01*
X82485D01*
Y64119D01*
Y64222D01*
X82382D01*
Y64325D01*
X82279D01*
Y64429D01*
Y64532D01*
X82176D01*
Y64635D01*
X82073D01*
Y64738D01*
Y64841D01*
X81970D01*
Y64944D01*
Y65047D01*
X81867D01*
Y65150D01*
X81764D01*
Y65253D01*
Y65356D01*
X81661D01*
Y65459D01*
Y65562D01*
X81558D01*
Y65665D01*
Y65768D01*
X81455D01*
Y65872D01*
Y65974D01*
X81352D01*
Y66078D01*
Y66181D01*
X81249D01*
Y66284D01*
Y66387D01*
X81146D01*
Y66490D01*
Y66593D01*
Y66696D01*
X81042D01*
Y66799D01*
Y66902D01*
X80939D01*
Y67005D01*
Y67108D01*
Y67211D01*
X80836D01*
Y67314D01*
Y67418D01*
Y67521D01*
X80733D01*
Y67624D01*
Y67727D01*
X80630D01*
Y67830D01*
Y67933D01*
Y68036D01*
X80527D01*
Y68139D01*
Y68242D01*
Y68345D01*
Y68448D01*
X80424D01*
Y68551D01*
Y68654D01*
Y68757D01*
X80321D01*
Y68861D01*
Y68963D01*
Y69067D01*
Y69170D01*
X80218D01*
Y69273D01*
Y69376D01*
Y69479D01*
Y69582D01*
X80115D01*
Y69685D01*
Y69788D01*
Y69891D01*
Y69994D01*
Y70097D01*
Y70200D01*
X80012D01*
Y70303D01*
Y70407D01*
Y70510D01*
Y70613D01*
Y70716D01*
Y70819D01*
X79909D01*
Y70922D01*
Y71025D01*
Y71128D01*
Y71231D01*
Y71334D01*
Y71437D01*
Y71540D01*
Y71643D01*
Y71746D01*
X79806D01*
Y71850D01*
Y71953D01*
Y72056D01*
Y72159D01*
Y72262D01*
Y72365D01*
Y72468D01*
Y72571D01*
Y72674D01*
Y72777D01*
Y72880D01*
Y72983D01*
Y73086D01*
Y73189D01*
Y73292D01*
Y73396D01*
Y73499D01*
Y73602D01*
Y73705D01*
Y73808D01*
Y73911D01*
Y74014D01*
Y74117D01*
Y74220D01*
X79909D01*
Y74323D01*
Y74426D01*
Y74529D01*
Y74632D01*
Y74735D01*
Y74839D01*
Y74942D01*
Y75045D01*
Y75148D01*
X80012D01*
Y75251D01*
Y75354D01*
Y75457D01*
Y75560D01*
Y75663D01*
Y75766D01*
X80115D01*
Y75869D01*
Y75972D01*
Y76075D01*
Y76178D01*
Y76281D01*
X80218D01*
Y76385D01*
Y76488D01*
Y76591D01*
Y76694D01*
Y76797D01*
X80321D01*
Y76900D01*
Y77003D01*
Y77106D01*
Y77209D01*
X80424D01*
Y77312D01*
Y77415D01*
Y77518D01*
X80527D01*
Y77621D01*
Y77724D01*
Y77828D01*
X80630D01*
Y77931D01*
Y78034D01*
Y78137D01*
X80733D01*
Y78240D01*
Y78343D01*
Y78446D01*
X80836D01*
Y78549D01*
Y78652D01*
Y78755D01*
X80939D01*
Y78858D01*
Y78961D01*
X81042D01*
Y79064D01*
Y79167D01*
Y79270D01*
X81146D01*
Y79374D01*
Y79477D01*
X81249D01*
Y79580D01*
Y79683D01*
X81352D01*
Y79786D01*
Y79889D01*
X81455D01*
Y79992D01*
Y80095D01*
Y80198D01*
X81558D01*
Y80301D01*
X81661D01*
Y80404D01*
Y80507D01*
X81764D01*
Y80610D01*
Y80713D01*
X81867D01*
Y80817D01*
Y80920D01*
X81970D01*
Y81023D01*
Y81126D01*
X82073D01*
Y81229D01*
X82176D01*
Y81332D01*
Y81435D01*
X82279D01*
Y81538D01*
X82382D01*
Y81641D01*
Y81744D01*
X82485D01*
Y81847D01*
Y81950D01*
X82588D01*
Y82053D01*
X82692D01*
Y82156D01*
X82795D01*
Y82260D01*
Y82363D01*
X82898D01*
Y82466D01*
X83001D01*
Y82569D01*
X83104D01*
Y82672D01*
Y82775D01*
X83207D01*
Y82878D01*
X83310D01*
Y82981D01*
X83413D01*
Y83084D01*
X83516D01*
Y83187D01*
Y83290D01*
X83619D01*
Y83393D01*
X83722D01*
Y83496D01*
X83825D01*
Y83599D01*
X83928D01*
Y83702D01*
X84031D01*
Y83806D01*
X84135D01*
Y83909D01*
X84238D01*
Y84012D01*
X84341D01*
Y84115D01*
X84444D01*
Y84218D01*
X84547D01*
Y84321D01*
X84650D01*
Y84424D01*
X84753D01*
Y84527D01*
X84856D01*
Y84630D01*
X84959D01*
Y84733D01*
X85062D01*
Y84836D01*
X85165D01*
Y84939D01*
X85268D01*
Y85042D01*
X85474D01*
Y85145D01*
X85577D01*
Y85249D01*
X85681D01*
Y85352D01*
X85784D01*
Y85455D01*
X85990D01*
Y85558D01*
X86093D01*
Y85661D01*
X86196D01*
Y85764D01*
X86402D01*
Y85867D01*
X86505D01*
Y85970D01*
X86711D01*
Y86073D01*
X86814D01*
Y86176D01*
X87020D01*
Y86279D01*
X87124D01*
Y86382D01*
X87330D01*
Y86485D01*
X87536D01*
Y86588D01*
X87639D01*
Y86691D01*
X87845D01*
Y86795D01*
X88051D01*
Y86898D01*
X88257D01*
Y87001D01*
X88463D01*
Y87104D01*
X88670D01*
Y87207D01*
X88876D01*
Y87310D01*
X89185D01*
Y87413D01*
X89391D01*
Y87516D01*
X89700D01*
Y87619D01*
X89906D01*
Y87722D01*
X90216D01*
Y87825D01*
X90525D01*
Y87928D01*
X90834D01*
Y88031D01*
X91246D01*
Y88134D01*
X91659D01*
Y88238D01*
X92071D01*
Y88341D01*
X92689D01*
Y88444D01*
X93308D01*
Y88547D01*
X94338D01*
Y88650D01*
X96915D01*
Y88547D01*
D02*
G37*
G36*
X102584Y54328D02*
X102481D01*
Y54225D01*
X102378D01*
Y54122D01*
Y54018D01*
X102275D01*
Y53915D01*
X102172D01*
Y53812D01*
Y53709D01*
X102069D01*
Y53606D01*
Y53503D01*
X101965D01*
Y53400D01*
X101862D01*
Y53297D01*
Y53194D01*
X101759D01*
Y53091D01*
Y52988D01*
X101656D01*
Y52885D01*
X101553D01*
Y52782D01*
Y52679D01*
X101450D01*
Y52575D01*
Y52473D01*
X101347D01*
Y52369D01*
X101244D01*
Y52266D01*
Y52163D01*
X101141D01*
Y52060D01*
X101038D01*
Y51957D01*
Y51854D01*
X100935D01*
Y51751D01*
Y51648D01*
X100832D01*
Y51545D01*
X100729D01*
Y51442D01*
Y51339D01*
X100626D01*
Y51236D01*
Y51133D01*
X100522D01*
Y51029D01*
X100419D01*
Y50926D01*
Y50823D01*
X100316D01*
Y50720D01*
Y50617D01*
X100213D01*
Y50514D01*
X100110D01*
Y50411D01*
Y50308D01*
Y50205D01*
Y50102D01*
Y49999D01*
Y49896D01*
Y49793D01*
Y49690D01*
Y49586D01*
Y49483D01*
Y49380D01*
Y49277D01*
Y49174D01*
Y49071D01*
Y48968D01*
Y48865D01*
Y48762D01*
Y48659D01*
Y48556D01*
Y48453D01*
Y48350D01*
X99595D01*
Y48453D01*
Y48556D01*
Y48659D01*
Y48762D01*
Y48865D01*
Y48968D01*
Y49071D01*
Y49174D01*
Y49277D01*
Y49380D01*
Y49483D01*
Y49586D01*
Y49690D01*
Y49793D01*
Y49896D01*
Y49999D01*
Y50102D01*
Y50205D01*
Y50308D01*
Y50411D01*
X99492D01*
Y50514D01*
Y50617D01*
X99389D01*
Y50720D01*
Y50823D01*
X99286D01*
Y50926D01*
X99183D01*
Y51029D01*
Y51133D01*
X99080D01*
Y51236D01*
Y51339D01*
X98976D01*
Y51442D01*
X98873D01*
Y51545D01*
Y51648D01*
X98770D01*
Y51751D01*
X98667D01*
Y51854D01*
Y51957D01*
X98564D01*
Y52060D01*
Y52163D01*
X98461D01*
Y52266D01*
X98358D01*
Y52369D01*
Y52473D01*
X98255D01*
Y52575D01*
Y52679D01*
X98152D01*
Y52782D01*
X98049D01*
Y52885D01*
Y52988D01*
X97946D01*
Y53091D01*
Y53194D01*
X97843D01*
Y53297D01*
X97740D01*
Y53400D01*
Y53503D01*
X97637D01*
Y53606D01*
X97534D01*
Y53709D01*
Y53812D01*
X97430D01*
Y53915D01*
Y54018D01*
X97327D01*
Y54122D01*
X97224D01*
Y54225D01*
Y54328D01*
X97121D01*
Y54431D01*
X97740D01*
Y54328D01*
Y54225D01*
X97843D01*
Y54122D01*
X97946D01*
Y54018D01*
Y53915D01*
X98049D01*
Y53812D01*
X98152D01*
Y53709D01*
Y53606D01*
X98255D01*
Y53503D01*
Y53400D01*
X98358D01*
Y53297D01*
X98461D01*
Y53194D01*
Y53091D01*
X98564D01*
Y52988D01*
Y52885D01*
X98667D01*
Y52782D01*
X98770D01*
Y52679D01*
Y52575D01*
X98873D01*
Y52473D01*
Y52369D01*
X98976D01*
Y52266D01*
X99080D01*
Y52163D01*
Y52060D01*
X99183D01*
Y51957D01*
Y51854D01*
X99286D01*
Y51751D01*
X99389D01*
Y51648D01*
Y51545D01*
X99492D01*
Y51442D01*
X99595D01*
Y51339D01*
Y51236D01*
X99698D01*
Y51133D01*
Y51029D01*
X99904D01*
Y51133D01*
Y51236D01*
X100007D01*
Y51339D01*
X100110D01*
Y51442D01*
Y51545D01*
X100213D01*
Y51648D01*
X100316D01*
Y51751D01*
Y51854D01*
X100419D01*
Y51957D01*
Y52060D01*
X100522D01*
Y52163D01*
X100626D01*
Y52266D01*
Y52369D01*
X100729D01*
Y52473D01*
Y52575D01*
X100832D01*
Y52679D01*
X100935D01*
Y52782D01*
Y52885D01*
X101038D01*
Y52988D01*
Y53091D01*
X101141D01*
Y53194D01*
X101244D01*
Y53297D01*
Y53400D01*
X101347D01*
Y53503D01*
X101450D01*
Y53606D01*
Y53709D01*
X101553D01*
Y53812D01*
Y53915D01*
X101656D01*
Y54018D01*
X101759D01*
Y54122D01*
Y54225D01*
X101862D01*
Y54328D01*
Y54431D01*
X102584D01*
Y54328D01*
D02*
G37*
G36*
X114231D02*
Y54225D01*
Y54122D01*
Y54018D01*
Y53915D01*
Y53812D01*
Y53709D01*
Y53606D01*
Y53503D01*
Y53400D01*
Y53297D01*
Y53194D01*
Y53091D01*
Y52988D01*
Y52885D01*
Y52782D01*
Y52679D01*
Y52575D01*
Y52473D01*
Y52369D01*
Y52266D01*
Y52163D01*
Y52060D01*
Y51957D01*
Y51854D01*
Y51751D01*
Y51648D01*
Y51545D01*
Y51442D01*
Y51339D01*
Y51236D01*
Y51133D01*
Y51029D01*
Y50926D01*
Y50823D01*
Y50720D01*
Y50617D01*
Y50514D01*
Y50411D01*
Y50308D01*
Y50205D01*
Y50102D01*
Y49999D01*
Y49896D01*
Y49793D01*
Y49690D01*
Y49586D01*
Y49483D01*
Y49380D01*
Y49277D01*
Y49174D01*
Y49071D01*
Y48968D01*
Y48865D01*
Y48762D01*
Y48659D01*
Y48556D01*
Y48453D01*
Y48350D01*
X113612D01*
Y48453D01*
Y48556D01*
Y48659D01*
Y48762D01*
Y48865D01*
Y48968D01*
Y49071D01*
Y49174D01*
Y49277D01*
Y49380D01*
Y49483D01*
Y49586D01*
Y49690D01*
Y49793D01*
Y49896D01*
Y49999D01*
Y50102D01*
Y50205D01*
Y50308D01*
Y50411D01*
Y50514D01*
Y50617D01*
Y50720D01*
Y50823D01*
Y50926D01*
Y51029D01*
Y51133D01*
Y51236D01*
Y51339D01*
Y51442D01*
Y51545D01*
Y51648D01*
Y51751D01*
Y51854D01*
Y51957D01*
Y52060D01*
Y52163D01*
Y52266D01*
Y52369D01*
Y52473D01*
Y52575D01*
Y52679D01*
Y52782D01*
Y52885D01*
Y52988D01*
Y53091D01*
Y53194D01*
Y53297D01*
X113509D01*
Y53194D01*
X113406D01*
Y53091D01*
Y52988D01*
X113303D01*
Y52885D01*
X113200D01*
Y52782D01*
X113097D01*
Y52679D01*
X112994D01*
Y52575D01*
Y52473D01*
X112891D01*
Y52369D01*
X112788D01*
Y52266D01*
X112685D01*
Y52163D01*
Y52060D01*
X112582D01*
Y51957D01*
X112479D01*
Y51854D01*
X112375D01*
Y51751D01*
X112272D01*
Y51648D01*
Y51545D01*
X112169D01*
Y51442D01*
X112066D01*
Y51339D01*
X111963D01*
Y51236D01*
X111860D01*
Y51133D01*
Y51029D01*
X111757D01*
Y50926D01*
X111654D01*
Y50823D01*
X111551D01*
Y50720D01*
X111448D01*
Y50617D01*
Y50514D01*
X111345D01*
Y50411D01*
X111242D01*
Y50308D01*
X111139D01*
Y50205D01*
X111036D01*
Y50102D01*
Y49999D01*
X110933D01*
Y49896D01*
X110829D01*
Y49793D01*
X110726D01*
Y49690D01*
Y49586D01*
X110623D01*
Y49483D01*
X110520D01*
Y49380D01*
X110417D01*
Y49277D01*
X110314D01*
Y49174D01*
Y49071D01*
X110211D01*
Y48968D01*
X110108D01*
Y48865D01*
X110005D01*
Y48762D01*
X109902D01*
Y48659D01*
Y48556D01*
X109799D01*
Y48453D01*
X109696D01*
Y48350D01*
X109180D01*
Y48453D01*
Y48556D01*
Y48659D01*
Y48762D01*
Y48865D01*
Y48968D01*
Y49071D01*
Y49174D01*
Y49277D01*
Y49380D01*
Y49483D01*
Y49586D01*
Y49690D01*
Y49793D01*
Y49896D01*
Y49999D01*
Y50102D01*
Y50205D01*
Y50308D01*
Y50411D01*
Y50514D01*
Y50617D01*
Y50720D01*
Y50823D01*
Y50926D01*
Y51029D01*
Y51133D01*
Y51236D01*
Y51339D01*
Y51442D01*
Y51545D01*
Y51648D01*
Y51751D01*
Y51854D01*
Y51957D01*
Y52060D01*
Y52163D01*
Y52266D01*
Y52369D01*
Y52473D01*
Y52575D01*
Y52679D01*
Y52782D01*
Y52885D01*
Y52988D01*
Y53091D01*
Y53194D01*
Y53297D01*
Y53400D01*
Y53503D01*
Y53606D01*
Y53709D01*
Y53812D01*
Y53915D01*
Y54018D01*
Y54122D01*
Y54225D01*
Y54328D01*
Y54431D01*
X109696D01*
Y54328D01*
Y54225D01*
Y54122D01*
Y54018D01*
Y53915D01*
Y53812D01*
Y53709D01*
Y53606D01*
Y53503D01*
Y53400D01*
Y53297D01*
Y53194D01*
Y53091D01*
Y52988D01*
Y52885D01*
Y52782D01*
Y52679D01*
Y52575D01*
Y52473D01*
Y52369D01*
Y52266D01*
Y52163D01*
Y52060D01*
Y51957D01*
Y51854D01*
Y51751D01*
Y51648D01*
Y51545D01*
Y51442D01*
Y51339D01*
Y51236D01*
Y51133D01*
Y51029D01*
Y50926D01*
Y50823D01*
Y50720D01*
Y50617D01*
Y50514D01*
Y50411D01*
Y50308D01*
Y50205D01*
Y50102D01*
Y49999D01*
Y49896D01*
Y49793D01*
Y49690D01*
Y49586D01*
X109902D01*
Y49690D01*
X110005D01*
Y49793D01*
X110108D01*
Y49896D01*
X110211D01*
Y49999D01*
Y50102D01*
X110314D01*
Y50205D01*
X110417D01*
Y50308D01*
X110520D01*
Y50411D01*
X110623D01*
Y50514D01*
Y50617D01*
X110726D01*
Y50720D01*
X110829D01*
Y50823D01*
X110933D01*
Y50926D01*
X111036D01*
Y51029D01*
Y51133D01*
X111139D01*
Y51236D01*
X111242D01*
Y51339D01*
X111345D01*
Y51442D01*
X111448D01*
Y51545D01*
Y51648D01*
X111551D01*
Y51751D01*
X111654D01*
Y51854D01*
X111757D01*
Y51957D01*
Y52060D01*
X111860D01*
Y52163D01*
X111963D01*
Y52266D01*
X112066D01*
Y52369D01*
X112169D01*
Y52473D01*
Y52575D01*
X112272D01*
Y52679D01*
X112375D01*
Y52782D01*
X112479D01*
Y52885D01*
X112582D01*
Y52988D01*
Y53091D01*
X112685D01*
Y53194D01*
X112788D01*
Y53297D01*
X112891D01*
Y53400D01*
X112994D01*
Y53503D01*
Y53606D01*
X113097D01*
Y53709D01*
X113200D01*
Y53812D01*
X113303D01*
Y53915D01*
X113406D01*
Y54018D01*
Y54122D01*
X113509D01*
Y54225D01*
X113612D01*
Y54328D01*
X113715D01*
Y54431D01*
X114231D01*
Y54328D01*
D02*
G37*
G36*
X123919D02*
Y54225D01*
Y54122D01*
Y54018D01*
Y53915D01*
Y53812D01*
Y53709D01*
Y53606D01*
Y53503D01*
Y53400D01*
Y53297D01*
Y53194D01*
Y53091D01*
Y52988D01*
Y52885D01*
Y52782D01*
Y52679D01*
Y52575D01*
Y52473D01*
Y52369D01*
Y52266D01*
Y52163D01*
Y52060D01*
Y51957D01*
Y51854D01*
Y51751D01*
Y51648D01*
Y51545D01*
Y51442D01*
Y51339D01*
Y51236D01*
Y51133D01*
Y51029D01*
Y50926D01*
Y50823D01*
Y50720D01*
Y50617D01*
Y50514D01*
Y50411D01*
Y50308D01*
Y50205D01*
Y50102D01*
Y49999D01*
Y49896D01*
Y49793D01*
Y49690D01*
Y49586D01*
Y49483D01*
Y49380D01*
Y49277D01*
Y49174D01*
Y49071D01*
Y48968D01*
Y48865D01*
Y48762D01*
Y48659D01*
Y48556D01*
Y48453D01*
Y48350D01*
X123404D01*
Y48453D01*
Y48556D01*
Y48659D01*
Y48762D01*
Y48865D01*
Y48968D01*
Y49071D01*
Y49174D01*
Y49277D01*
Y49380D01*
Y49483D01*
Y49586D01*
Y49690D01*
Y49793D01*
Y49896D01*
Y49999D01*
Y50102D01*
Y50205D01*
Y50308D01*
Y50411D01*
Y50514D01*
Y50617D01*
Y50720D01*
Y50823D01*
Y50926D01*
Y51029D01*
Y51133D01*
Y51236D01*
Y51339D01*
Y51442D01*
Y51545D01*
Y51648D01*
Y51751D01*
Y51854D01*
Y51957D01*
Y52060D01*
Y52163D01*
Y52266D01*
Y52369D01*
Y52473D01*
Y52575D01*
Y52679D01*
Y52782D01*
Y52885D01*
Y52988D01*
Y53091D01*
Y53194D01*
X123198D01*
Y53091D01*
X123095D01*
Y52988D01*
X122992D01*
Y52885D01*
Y52782D01*
X122889D01*
Y52679D01*
X122785D01*
Y52575D01*
X122682D01*
Y52473D01*
X122579D01*
Y52369D01*
Y52266D01*
X122476D01*
Y52163D01*
X122373D01*
Y52060D01*
X122270D01*
Y51957D01*
X122167D01*
Y51854D01*
Y51751D01*
X122064D01*
Y51648D01*
X121961D01*
Y51545D01*
X121858D01*
Y51442D01*
X121755D01*
Y51339D01*
Y51236D01*
X121652D01*
Y51133D01*
X121549D01*
Y51029D01*
X121446D01*
Y50926D01*
Y50823D01*
X121343D01*
Y50720D01*
X121239D01*
Y50617D01*
X121136D01*
Y50514D01*
X121033D01*
Y50411D01*
Y50308D01*
X120930D01*
Y50205D01*
X120827D01*
Y50102D01*
X120724D01*
Y49999D01*
X120621D01*
Y49896D01*
Y49793D01*
X120518D01*
Y49690D01*
X120415D01*
Y49586D01*
X120312D01*
Y49483D01*
X120209D01*
Y49380D01*
Y49277D01*
X120106D01*
Y49174D01*
X120003D01*
Y49071D01*
X119900D01*
Y48968D01*
X119797D01*
Y48865D01*
Y48762D01*
X119693D01*
Y48659D01*
X119590D01*
Y48556D01*
X119487D01*
Y48453D01*
X119384D01*
Y48350D01*
X118869D01*
Y48453D01*
Y48556D01*
Y48659D01*
Y48762D01*
Y48865D01*
Y48968D01*
Y49071D01*
Y49174D01*
Y49277D01*
Y49380D01*
Y49483D01*
Y49586D01*
Y49690D01*
Y49793D01*
Y49896D01*
Y49999D01*
Y50102D01*
Y50205D01*
Y50308D01*
Y50411D01*
Y50514D01*
Y50617D01*
Y50720D01*
Y50823D01*
Y50926D01*
Y51029D01*
Y51133D01*
Y51236D01*
Y51339D01*
Y51442D01*
Y51545D01*
Y51648D01*
Y51751D01*
Y51854D01*
Y51957D01*
Y52060D01*
Y52163D01*
Y52266D01*
Y52369D01*
Y52473D01*
Y52575D01*
Y52679D01*
Y52782D01*
Y52885D01*
Y52988D01*
Y53091D01*
Y53194D01*
Y53297D01*
Y53400D01*
Y53503D01*
Y53606D01*
Y53709D01*
Y53812D01*
Y53915D01*
Y54018D01*
Y54122D01*
Y54225D01*
Y54328D01*
Y54431D01*
X119487D01*
Y54328D01*
Y54225D01*
Y54122D01*
Y54018D01*
Y53915D01*
Y53812D01*
Y53709D01*
Y53606D01*
Y53503D01*
Y53400D01*
Y53297D01*
Y53194D01*
Y53091D01*
Y52988D01*
Y52885D01*
Y52782D01*
Y52679D01*
Y52575D01*
Y52473D01*
Y52369D01*
Y52266D01*
Y52163D01*
Y52060D01*
Y51957D01*
Y51854D01*
Y51751D01*
Y51648D01*
Y51545D01*
Y51442D01*
Y51339D01*
Y51236D01*
Y51133D01*
Y51029D01*
Y50926D01*
Y50823D01*
Y50720D01*
Y50617D01*
Y50514D01*
Y50411D01*
Y50308D01*
Y50205D01*
Y50102D01*
Y49999D01*
Y49896D01*
Y49793D01*
Y49690D01*
Y49586D01*
Y49483D01*
X119590D01*
Y49586D01*
X119693D01*
Y49690D01*
X119797D01*
Y49793D01*
Y49896D01*
X119900D01*
Y49999D01*
X120003D01*
Y50102D01*
X120106D01*
Y50205D01*
Y50308D01*
X120209D01*
Y50411D01*
X120312D01*
Y50514D01*
X120415D01*
Y50617D01*
X120518D01*
Y50720D01*
Y50823D01*
X120621D01*
Y50926D01*
X120724D01*
Y51029D01*
X120827D01*
Y51133D01*
X120930D01*
Y51236D01*
Y51339D01*
X121033D01*
Y51442D01*
X121136D01*
Y51545D01*
X121239D01*
Y51648D01*
X121343D01*
Y51751D01*
Y51854D01*
X121446D01*
Y51957D01*
X121549D01*
Y52060D01*
X121652D01*
Y52163D01*
X121755D01*
Y52266D01*
Y52369D01*
X121858D01*
Y52473D01*
X121961D01*
Y52575D01*
X122064D01*
Y52679D01*
X122167D01*
Y52782D01*
Y52885D01*
X122270D01*
Y52988D01*
X122373D01*
Y53091D01*
X122476D01*
Y53194D01*
X122579D01*
Y53297D01*
Y53400D01*
X122682D01*
Y53503D01*
X122785D01*
Y53606D01*
X122889D01*
Y53709D01*
Y53812D01*
X122992D01*
Y53915D01*
X123095D01*
Y54018D01*
X123198D01*
Y54122D01*
X123301D01*
Y54225D01*
Y54328D01*
X123404D01*
Y54431D01*
X123919D01*
Y54328D01*
D02*
G37*
G36*
X134639D02*
X135051D01*
Y54225D01*
X135257D01*
Y54122D01*
X135463D01*
Y54018D01*
X135669D01*
Y53915D01*
X135875D01*
Y53812D01*
X135978D01*
Y53709D01*
X136081D01*
Y53606D01*
X136185D01*
Y53503D01*
X136288D01*
Y53400D01*
X136391D01*
Y53297D01*
X136494D01*
Y53194D01*
Y53091D01*
X136597D01*
Y52988D01*
X136700D01*
Y52885D01*
Y52782D01*
X136803D01*
Y52679D01*
Y52575D01*
X136906D01*
Y52473D01*
Y52369D01*
Y52266D01*
X137009D01*
Y52163D01*
Y52060D01*
Y51957D01*
Y51854D01*
Y51751D01*
Y51648D01*
Y51545D01*
Y51442D01*
Y51339D01*
Y51236D01*
Y51133D01*
Y51029D01*
Y50926D01*
Y50823D01*
Y50720D01*
Y50617D01*
Y50514D01*
X136906D01*
Y50411D01*
Y50308D01*
Y50205D01*
X136803D01*
Y50102D01*
Y49999D01*
X136700D01*
Y49896D01*
Y49793D01*
X136597D01*
Y49690D01*
Y49586D01*
X136494D01*
Y49483D01*
X136391D01*
Y49380D01*
X136288D01*
Y49277D01*
X136185D01*
Y49174D01*
X136081D01*
Y49071D01*
X135978D01*
Y48968D01*
X135875D01*
Y48865D01*
X135669D01*
Y48762D01*
X135566D01*
Y48659D01*
X135360D01*
Y48556D01*
X135051D01*
Y48453D01*
X134741D01*
Y48350D01*
X132989D01*
Y48453D01*
X132577D01*
Y48556D01*
X132371D01*
Y48659D01*
X132165D01*
Y48762D01*
X131959D01*
Y48865D01*
X131856D01*
Y48968D01*
X131649D01*
Y49071D01*
Y49174D01*
Y49277D01*
Y49380D01*
Y49483D01*
Y49586D01*
Y49690D01*
Y49793D01*
Y49896D01*
Y49999D01*
Y50102D01*
Y50205D01*
Y50308D01*
Y50411D01*
Y50514D01*
Y50617D01*
Y50720D01*
Y50823D01*
Y50926D01*
Y51029D01*
Y51133D01*
Y51236D01*
Y51339D01*
X132165D01*
Y51236D01*
Y51133D01*
Y51029D01*
Y50926D01*
Y50823D01*
Y50720D01*
Y50617D01*
Y50514D01*
Y50411D01*
Y50308D01*
Y50205D01*
Y50102D01*
Y49999D01*
Y49896D01*
Y49793D01*
Y49690D01*
Y49586D01*
Y49483D01*
Y49380D01*
X132268D01*
Y49277D01*
X132371D01*
Y49174D01*
X132474D01*
Y49071D01*
X132783D01*
Y48968D01*
X133092D01*
Y48865D01*
X133711D01*
Y48762D01*
X134020D01*
Y48865D01*
X134639D01*
Y48968D01*
X134948D01*
Y49071D01*
X135154D01*
Y49174D01*
X135360D01*
Y49277D01*
X135463D01*
Y49380D01*
X135566D01*
Y49483D01*
X135669D01*
Y49586D01*
X135772D01*
Y49690D01*
X135875D01*
Y49793D01*
X135978D01*
Y49896D01*
X136081D01*
Y49999D01*
Y50102D01*
X136185D01*
Y50205D01*
X136288D01*
Y50308D01*
Y50411D01*
Y50514D01*
X136391D01*
Y50617D01*
Y50720D01*
Y50823D01*
X136494D01*
Y50926D01*
Y51029D01*
Y51133D01*
Y51236D01*
Y51339D01*
Y51442D01*
Y51545D01*
Y51648D01*
Y51751D01*
Y51854D01*
X136391D01*
Y51957D01*
Y52060D01*
Y52163D01*
Y52266D01*
X136288D01*
Y52369D01*
Y52473D01*
X136185D01*
Y52575D01*
Y52679D01*
X136081D01*
Y52782D01*
Y52885D01*
X135978D01*
Y52988D01*
X135875D01*
Y53091D01*
X135772D01*
Y53194D01*
X135669D01*
Y53297D01*
X135566D01*
Y53400D01*
X135463D01*
Y53503D01*
X135257D01*
Y53606D01*
X135154D01*
Y53709D01*
X134845D01*
Y53812D01*
X134535D01*
Y53915D01*
X133092D01*
Y53812D01*
X132783D01*
Y53709D01*
X132577D01*
Y53606D01*
X132371D01*
Y53503D01*
X132268D01*
Y53400D01*
X132165D01*
Y53297D01*
X131856D01*
Y53400D01*
X131753D01*
Y53503D01*
X131649D01*
Y53606D01*
Y53709D01*
X131753D01*
Y53812D01*
X131856D01*
Y53915D01*
X132062D01*
Y54018D01*
X132268D01*
Y54122D01*
X132474D01*
Y54225D01*
X132680D01*
Y54328D01*
X133092D01*
Y54431D01*
X134639D01*
Y54328D01*
D02*
G37*
G36*
X129794D02*
Y54225D01*
Y54122D01*
Y54018D01*
Y53915D01*
Y53812D01*
Y53709D01*
Y53606D01*
Y53503D01*
Y53400D01*
Y53297D01*
Y53194D01*
Y53091D01*
Y52988D01*
Y52885D01*
Y52782D01*
Y52679D01*
Y52575D01*
Y52473D01*
Y52369D01*
Y52266D01*
Y52163D01*
Y52060D01*
Y51957D01*
Y51854D01*
Y51751D01*
Y51648D01*
Y51545D01*
Y51442D01*
Y51339D01*
Y51236D01*
Y51133D01*
Y51029D01*
Y50926D01*
Y50823D01*
Y50720D01*
Y50617D01*
Y50514D01*
Y50411D01*
Y50308D01*
Y50205D01*
Y50102D01*
Y49999D01*
Y49896D01*
Y49793D01*
Y49690D01*
Y49586D01*
Y49483D01*
Y49380D01*
Y49277D01*
Y49174D01*
Y49071D01*
Y48968D01*
Y48865D01*
Y48762D01*
Y48659D01*
Y48556D01*
Y48453D01*
Y48350D01*
X125568D01*
Y48453D01*
Y48556D01*
Y48659D01*
Y48762D01*
Y48865D01*
X129176D01*
Y48968D01*
Y49071D01*
Y49174D01*
Y49277D01*
Y49380D01*
Y49483D01*
Y49586D01*
Y49690D01*
Y49793D01*
Y49896D01*
Y49999D01*
Y50102D01*
Y50205D01*
Y50308D01*
Y50411D01*
Y50514D01*
Y50617D01*
Y50720D01*
Y50823D01*
Y50926D01*
Y51029D01*
Y51133D01*
X129073D01*
Y51236D01*
X126084D01*
Y51339D01*
Y51442D01*
Y51545D01*
Y51648D01*
X129176D01*
Y51751D01*
Y51854D01*
Y51957D01*
Y52060D01*
Y52163D01*
Y52266D01*
Y52369D01*
Y52473D01*
Y52575D01*
Y52679D01*
Y52782D01*
Y52885D01*
Y52988D01*
Y53091D01*
Y53194D01*
Y53297D01*
Y53400D01*
Y53503D01*
Y53606D01*
Y53709D01*
Y53812D01*
Y53915D01*
X125672D01*
Y54018D01*
Y54122D01*
Y54225D01*
Y54328D01*
Y54431D01*
X129794D01*
Y54328D01*
D02*
G37*
G36*
X116807D02*
Y54225D01*
Y54122D01*
Y54018D01*
Y53915D01*
Y53812D01*
Y53709D01*
Y53606D01*
Y53503D01*
Y53400D01*
Y53297D01*
Y53194D01*
Y53091D01*
Y52988D01*
Y52885D01*
Y52782D01*
Y52679D01*
Y52575D01*
Y52473D01*
Y52369D01*
Y52266D01*
Y52163D01*
Y52060D01*
Y51957D01*
Y51854D01*
Y51751D01*
Y51648D01*
Y51545D01*
Y51442D01*
Y51339D01*
Y51236D01*
Y51133D01*
Y51029D01*
Y50926D01*
Y50823D01*
Y50720D01*
Y50617D01*
Y50514D01*
Y50411D01*
Y50308D01*
Y50205D01*
Y50102D01*
Y49999D01*
Y49896D01*
Y49793D01*
Y49690D01*
Y49586D01*
Y49483D01*
Y49380D01*
Y49277D01*
Y49174D01*
Y49071D01*
Y48968D01*
Y48865D01*
Y48762D01*
Y48659D01*
Y48556D01*
Y48453D01*
Y48350D01*
X116292D01*
Y48453D01*
Y48556D01*
Y48659D01*
Y48762D01*
Y48865D01*
Y48968D01*
Y49071D01*
Y49174D01*
Y49277D01*
Y49380D01*
Y49483D01*
Y49586D01*
Y49690D01*
Y49793D01*
Y49896D01*
Y49999D01*
Y50102D01*
Y50205D01*
Y50308D01*
Y50411D01*
Y50514D01*
Y50617D01*
Y50720D01*
Y50823D01*
Y50926D01*
Y51029D01*
Y51133D01*
Y51236D01*
Y51339D01*
Y51442D01*
Y51545D01*
Y51648D01*
Y51751D01*
Y51854D01*
Y51957D01*
Y52060D01*
Y52163D01*
Y52266D01*
Y52369D01*
Y52473D01*
Y52575D01*
Y52679D01*
Y52782D01*
Y52885D01*
Y52988D01*
Y53091D01*
Y53194D01*
Y53297D01*
Y53400D01*
Y53503D01*
Y53606D01*
Y53709D01*
Y53812D01*
Y53915D01*
Y54018D01*
Y54122D01*
Y54225D01*
Y54328D01*
Y54431D01*
X116807D01*
Y54328D01*
D02*
G37*
G36*
X107119D02*
Y54225D01*
Y54122D01*
Y54018D01*
Y53915D01*
Y53812D01*
Y53709D01*
Y53606D01*
Y53503D01*
Y53400D01*
Y53297D01*
Y53194D01*
Y53091D01*
Y52988D01*
Y52885D01*
Y52782D01*
Y52679D01*
Y52575D01*
Y52473D01*
Y52369D01*
Y52266D01*
Y52163D01*
Y52060D01*
Y51957D01*
Y51854D01*
Y51751D01*
Y51648D01*
Y51545D01*
Y51442D01*
Y51339D01*
Y51236D01*
Y51133D01*
Y51029D01*
Y50926D01*
Y50823D01*
Y50720D01*
Y50617D01*
Y50514D01*
Y50411D01*
Y50308D01*
Y50205D01*
Y50102D01*
Y49999D01*
Y49896D01*
Y49793D01*
Y49690D01*
Y49586D01*
Y49483D01*
Y49380D01*
Y49277D01*
Y49174D01*
Y49071D01*
Y48968D01*
Y48865D01*
Y48762D01*
Y48659D01*
Y48556D01*
Y48453D01*
Y48350D01*
X106500D01*
Y48453D01*
Y48556D01*
Y48659D01*
Y48762D01*
Y48865D01*
Y48968D01*
Y49071D01*
Y49174D01*
Y49277D01*
Y49380D01*
Y49483D01*
Y49586D01*
Y49690D01*
Y49793D01*
Y49896D01*
Y49999D01*
Y50102D01*
Y50205D01*
Y50308D01*
Y50411D01*
Y50514D01*
Y50617D01*
Y50720D01*
Y50823D01*
Y50926D01*
X103409D01*
Y51029D01*
Y51133D01*
Y51236D01*
Y51339D01*
Y51442D01*
X106500D01*
Y51545D01*
Y51648D01*
Y51751D01*
Y51854D01*
Y51957D01*
Y52060D01*
Y52163D01*
Y52266D01*
Y52369D01*
Y52473D01*
Y52575D01*
Y52679D01*
Y52782D01*
Y52885D01*
Y52988D01*
Y53091D01*
Y53194D01*
Y53297D01*
Y53400D01*
Y53503D01*
Y53606D01*
Y53709D01*
Y53812D01*
Y53915D01*
X102996D01*
Y54018D01*
Y54122D01*
Y54225D01*
Y54328D01*
Y54431D01*
X107119D01*
Y54328D01*
D02*
G37*
%LPC*%
G36*
X96503Y84424D02*
X94854D01*
Y84321D01*
X93720D01*
Y84218D01*
X93102D01*
Y84115D01*
X92689D01*
Y84012D01*
X92277D01*
Y83909D01*
X91865D01*
Y83806D01*
X91556D01*
Y83702D01*
X91246D01*
Y83599D01*
X91040D01*
Y83496D01*
X90834D01*
Y83393D01*
X90525D01*
Y83290D01*
X90319D01*
Y83187D01*
X90113D01*
Y83084D01*
X89906D01*
Y82981D01*
X89803D01*
Y82878D01*
X89597D01*
Y82775D01*
X89391D01*
Y82672D01*
X89288D01*
Y82569D01*
X89082D01*
Y82466D01*
X88979D01*
Y82363D01*
X88773D01*
Y82260D01*
X88670D01*
Y82156D01*
X88463D01*
Y82053D01*
X88360D01*
Y81950D01*
X88257D01*
Y81847D01*
X88154D01*
Y81744D01*
X87948D01*
Y81641D01*
X87845D01*
Y81538D01*
X87742D01*
Y81435D01*
X87639D01*
Y81332D01*
X87536D01*
Y81229D01*
X87433D01*
Y81126D01*
X87330D01*
Y81023D01*
X87227D01*
Y80920D01*
X87124D01*
Y80817D01*
X87020D01*
Y80713D01*
X86917D01*
Y80610D01*
X86814D01*
Y80507D01*
Y80404D01*
X86711D01*
Y80301D01*
X86608D01*
Y80198D01*
X86505D01*
Y80095D01*
X86402D01*
Y79992D01*
Y79889D01*
X86299D01*
Y79786D01*
X86196D01*
Y79683D01*
X86093D01*
Y79580D01*
Y79477D01*
X85990D01*
Y79374D01*
X85887D01*
Y79270D01*
Y79167D01*
X85784D01*
Y79064D01*
Y78961D01*
X85681D01*
Y78858D01*
X85577D01*
Y78755D01*
Y78652D01*
X85474D01*
Y78549D01*
Y78446D01*
X85371D01*
Y78343D01*
Y78240D01*
X85268D01*
Y78137D01*
Y78034D01*
X85165D01*
Y77931D01*
Y77828D01*
X85062D01*
Y77724D01*
Y77621D01*
X84959D01*
Y77518D01*
Y77415D01*
X84856D01*
Y77312D01*
Y77209D01*
Y77106D01*
X84753D01*
Y77003D01*
Y76900D01*
Y76797D01*
X84650D01*
Y76694D01*
Y76591D01*
Y76488D01*
X84547D01*
Y76385D01*
Y76281D01*
Y76178D01*
X84444D01*
Y76075D01*
Y75972D01*
Y75869D01*
Y75766D01*
X84341D01*
Y75663D01*
Y75560D01*
Y75457D01*
Y75354D01*
X84238D01*
Y75251D01*
Y75148D01*
Y75045D01*
Y74942D01*
Y74839D01*
Y74735D01*
X84135D01*
Y74632D01*
Y74529D01*
Y74426D01*
Y74323D01*
Y74220D01*
Y74117D01*
Y74014D01*
Y73911D01*
Y73808D01*
Y73705D01*
X84031D01*
Y73602D01*
Y73499D01*
Y73396D01*
Y73292D01*
Y73189D01*
Y73086D01*
Y72983D01*
Y72880D01*
Y72777D01*
Y72674D01*
Y72571D01*
Y72468D01*
Y72365D01*
Y72262D01*
X84135D01*
Y72159D01*
Y72056D01*
Y71953D01*
Y71850D01*
Y71746D01*
Y71643D01*
Y71540D01*
Y71437D01*
Y71334D01*
Y71231D01*
X84238D01*
Y71128D01*
Y71025D01*
Y70922D01*
Y70819D01*
Y70716D01*
Y70613D01*
X84341D01*
Y70510D01*
Y70407D01*
Y70303D01*
Y70200D01*
X84444D01*
Y70097D01*
Y69994D01*
Y69891D01*
Y69788D01*
X84547D01*
Y69685D01*
Y69582D01*
Y69479D01*
Y69376D01*
X84650D01*
Y69273D01*
Y69170D01*
Y69067D01*
X84753D01*
Y68963D01*
Y68861D01*
X84856D01*
Y68757D01*
Y68654D01*
Y68551D01*
X84959D01*
Y68448D01*
Y68345D01*
X85062D01*
Y68242D01*
Y68139D01*
Y68036D01*
X85165D01*
Y67933D01*
Y67830D01*
X85268D01*
Y67727D01*
Y67624D01*
X85371D01*
Y67521D01*
Y67418D01*
X85474D01*
Y67314D01*
X85577D01*
Y67211D01*
Y67108D01*
X85681D01*
Y67005D01*
Y66902D01*
X85784D01*
Y66799D01*
X85887D01*
Y66696D01*
Y66593D01*
X85990D01*
Y66490D01*
Y66387D01*
X86093D01*
Y66284D01*
X86196D01*
Y66181D01*
X86299D01*
Y66078D01*
Y65974D01*
X86402D01*
Y65872D01*
X86505D01*
Y65768D01*
X86608D01*
Y65665D01*
Y65562D01*
X86711D01*
Y65459D01*
X86814D01*
Y65356D01*
X86917D01*
Y65253D01*
X87020D01*
Y65150D01*
X87124D01*
Y65047D01*
X87227D01*
Y64944D01*
X87330D01*
Y64841D01*
Y64738D01*
X87433D01*
Y64635D01*
X87536D01*
Y64532D01*
X87639D01*
Y64429D01*
X87845D01*
Y64325D01*
X87948D01*
Y64222D01*
X88051D01*
Y64119D01*
X88154D01*
Y64016D01*
X88257D01*
Y63913D01*
X88360D01*
Y63810D01*
X88566D01*
Y63707D01*
X88670D01*
Y63604D01*
X88773D01*
Y63501D01*
X88979D01*
Y63398D01*
X89082D01*
Y63295D01*
X89185D01*
Y63192D01*
X89391D01*
Y63089D01*
X89494D01*
Y62985D01*
X89700D01*
Y62882D01*
X89906D01*
Y62779D01*
X90113D01*
Y62676D01*
X90216D01*
Y62573D01*
X90422D01*
Y62470D01*
X90628D01*
Y62367D01*
X90834D01*
Y62264D01*
X91040D01*
Y62161D01*
X91349D01*
Y62058D01*
X91556D01*
Y61955D01*
X91865D01*
Y61852D01*
X92174D01*
Y61749D01*
X92483D01*
Y61646D01*
X92895D01*
Y61543D01*
X93308D01*
Y61440D01*
X94029D01*
Y61336D01*
X96812D01*
Y61440D01*
X97430D01*
Y61543D01*
X97946D01*
Y61646D01*
X98358D01*
Y61749D01*
X98770D01*
Y61852D01*
X99080D01*
Y61955D01*
X99389D01*
Y62058D01*
X99698D01*
Y62161D01*
X100007D01*
Y62264D01*
X100213D01*
Y62367D01*
X100522D01*
Y62470D01*
X100729D01*
Y62573D01*
X100935D01*
Y62676D01*
X101244D01*
Y62779D01*
X101450D01*
Y62882D01*
X101656D01*
Y62985D01*
X101862D01*
Y63089D01*
X102069D01*
Y63192D01*
X102275D01*
Y63295D01*
X102481D01*
Y63398D01*
X102584D01*
Y63501D01*
X102790D01*
Y63604D01*
X102996D01*
Y63707D01*
X103202D01*
Y63810D01*
X103305D01*
Y63913D01*
X103512D01*
Y64016D01*
X103718D01*
Y64119D01*
X103821D01*
Y64222D01*
X104027D01*
Y64325D01*
X104233D01*
Y64429D01*
X104336D01*
Y64532D01*
X104542D01*
Y64635D01*
X104645D01*
Y64738D01*
X104851D01*
Y64841D01*
X104955D01*
Y64944D01*
X105161D01*
Y65047D01*
X105264D01*
Y65150D01*
X105367D01*
Y65253D01*
X105573D01*
Y65356D01*
X105676D01*
Y65459D01*
X105882D01*
Y65562D01*
X105985D01*
Y65665D01*
X106088D01*
Y65768D01*
X106294D01*
Y65872D01*
X106397D01*
Y65974D01*
X106500D01*
Y66078D01*
X106707D01*
Y66181D01*
X106810D01*
Y66284D01*
X106913D01*
Y66387D01*
X107119D01*
Y66490D01*
X107222D01*
Y66593D01*
X107325D01*
Y66696D01*
X107531D01*
Y66799D01*
X107634D01*
Y66902D01*
X107737D01*
Y67005D01*
X107841D01*
Y67108D01*
X108047D01*
Y67211D01*
X108150D01*
Y67314D01*
X108253D01*
Y67418D01*
X108356D01*
Y67521D01*
X108562D01*
Y67624D01*
X108665D01*
Y67727D01*
X108768D01*
Y67830D01*
X108871D01*
Y67933D01*
X108974D01*
Y68036D01*
X109180D01*
Y68139D01*
X109283D01*
Y68242D01*
X109387D01*
Y68345D01*
X109490D01*
Y68448D01*
X109593D01*
Y68551D01*
X109696D01*
Y68654D01*
X109902D01*
Y68757D01*
X110005D01*
Y68861D01*
X110108D01*
Y68963D01*
X110211D01*
Y69067D01*
X110314D01*
Y69170D01*
X110417D01*
Y69273D01*
X110520D01*
Y69376D01*
X110623D01*
Y69479D01*
X110726D01*
Y69582D01*
X110829D01*
Y69685D01*
X110933D01*
Y69788D01*
X111036D01*
Y69891D01*
X111139D01*
Y69994D01*
X111242D01*
Y70097D01*
X111345D01*
Y70200D01*
X111448D01*
Y70303D01*
X111551D01*
Y70407D01*
X111654D01*
Y70510D01*
X111757D01*
Y70613D01*
X111963D01*
Y70716D01*
X112066D01*
Y70819D01*
X112169D01*
Y70922D01*
X112272D01*
Y71025D01*
X112375D01*
Y71128D01*
X112479D01*
Y71231D01*
X112582D01*
Y71334D01*
X112685D01*
Y71437D01*
X112788D01*
Y71540D01*
X112891D01*
Y71643D01*
X112994D01*
Y71746D01*
X113097D01*
Y71850D01*
X113200D01*
Y71953D01*
X113303D01*
Y72056D01*
X113406D01*
Y72159D01*
X113509D01*
Y72262D01*
X113612D01*
Y72365D01*
X113715D01*
Y72468D01*
X113819D01*
Y72571D01*
X113921D01*
Y72674D01*
X114025D01*
Y72777D01*
X114128D01*
Y72880D01*
X114231D01*
Y72983D01*
X114128D01*
Y73086D01*
X114025D01*
Y73189D01*
X113921D01*
Y73292D01*
X113819D01*
Y73396D01*
X113715D01*
Y73499D01*
X113612D01*
Y73602D01*
X113509D01*
Y73705D01*
X113406D01*
Y73808D01*
X113303D01*
Y73911D01*
X113200D01*
Y74014D01*
X113097D01*
Y74117D01*
X112994D01*
Y74220D01*
X112891D01*
Y74323D01*
X112788D01*
Y74426D01*
X112685D01*
Y74529D01*
X112582D01*
Y74632D01*
X112479D01*
Y74735D01*
X112375D01*
Y74839D01*
X112272D01*
Y74942D01*
X112169D01*
Y75045D01*
X112066D01*
Y75148D01*
X111963D01*
Y75251D01*
X111860D01*
Y75354D01*
X111757D01*
Y75457D01*
X111654D01*
Y75560D01*
X111551D01*
Y75663D01*
X111448D01*
Y75766D01*
X111345D01*
Y75869D01*
X111242D01*
Y75972D01*
X111139D01*
Y76075D01*
X111036D01*
Y76178D01*
X110933D01*
Y76281D01*
X110726D01*
Y76385D01*
X110623D01*
Y76488D01*
X110520D01*
Y76591D01*
X110417D01*
Y76694D01*
X110314D01*
Y76797D01*
X110211D01*
Y76900D01*
X110108D01*
Y77003D01*
X110005D01*
Y77106D01*
X109902D01*
Y77209D01*
X109799D01*
Y77312D01*
X109696D01*
Y77415D01*
X109593D01*
Y77518D01*
X109490D01*
Y77621D01*
X109387D01*
Y77724D01*
X109283D01*
Y77828D01*
X109077D01*
Y77931D01*
X108974D01*
Y78034D01*
X108871D01*
Y78137D01*
X108768D01*
Y78240D01*
X108665D01*
Y78343D01*
X108562D01*
Y78446D01*
X108459D01*
Y78549D01*
X108356D01*
Y78652D01*
X108150D01*
Y78755D01*
X108047D01*
Y78858D01*
X107943D01*
Y78961D01*
X107841D01*
Y79064D01*
X107737D01*
Y79167D01*
X107634D01*
Y79270D01*
X107428D01*
Y79374D01*
X107325D01*
Y79477D01*
X107222D01*
Y79580D01*
X107119D01*
Y79683D01*
X106913D01*
Y79786D01*
X106810D01*
Y79889D01*
X106707D01*
Y79992D01*
X106604D01*
Y80095D01*
X106397D01*
Y80198D01*
X106294D01*
Y80301D01*
X106191D01*
Y80404D01*
X105985D01*
Y80507D01*
X105882D01*
Y80610D01*
X105779D01*
Y80713D01*
X105573D01*
Y80817D01*
X105470D01*
Y80920D01*
X105264D01*
Y81023D01*
X105161D01*
Y81126D01*
X104955D01*
Y81229D01*
X104851D01*
Y81332D01*
X104645D01*
Y81435D01*
X104542D01*
Y81538D01*
X104336D01*
Y81641D01*
X104233D01*
Y81744D01*
X104027D01*
Y81847D01*
X103821D01*
Y81950D01*
X103718D01*
Y82053D01*
X103512D01*
Y82156D01*
X103305D01*
Y82260D01*
X103202D01*
Y82363D01*
X102996D01*
Y82466D01*
X102790D01*
Y82569D01*
X102584D01*
Y82672D01*
X102378D01*
Y82775D01*
X102172D01*
Y82878D01*
X101965D01*
Y82981D01*
X101759D01*
Y83084D01*
X101450D01*
Y83187D01*
X101244D01*
Y83290D01*
X101038D01*
Y83393D01*
X100729D01*
Y83496D01*
X100419D01*
Y83599D01*
X100213D01*
Y83702D01*
X99801D01*
Y83806D01*
X99492D01*
Y83909D01*
X99080D01*
Y84012D01*
X98667D01*
Y84115D01*
X98152D01*
Y84218D01*
X97534D01*
Y84321D01*
X96503D01*
Y84424D01*
D02*
G37*
%LPD*%
D10*
X11614Y65551D02*
X18701D01*
X11614D02*
Y78150D01*
X18701D01*
Y65551D02*
Y78150D01*
D67*
X228740Y114961D02*
Y124800D01*
X225460Y121520D01*
X222181Y124800D01*
Y114961D01*
X213981Y124800D02*
X217261D01*
X218901Y123160D01*
Y116601D01*
X217261Y114961D01*
X213981D01*
X212341Y116601D01*
Y123160D01*
X213981Y124800D01*
X209062D02*
X202502D01*
X205782D01*
Y114961D01*
X194302Y124800D02*
X197582D01*
X199222Y123160D01*
Y116601D01*
X197582Y114961D01*
X194302D01*
X192663Y116601D01*
Y123160D01*
X194302Y124800D01*
X189383Y114961D02*
Y124800D01*
X184463D01*
X182823Y123160D01*
Y119880D01*
X184463Y118240D01*
X189383D01*
X186103D02*
X182823Y114961D01*
X169704D02*
Y124800D01*
X166424Y121520D01*
X163145Y124800D01*
Y114961D01*
X154945Y124800D02*
X158225D01*
X159865Y123160D01*
Y116601D01*
X158225Y114961D01*
X154945D01*
X153305Y116601D01*
Y123160D01*
X154945Y124800D01*
X150025D02*
Y114961D01*
X145106D01*
X143466Y116601D01*
Y123160D01*
X145106Y124800D01*
X150025D01*
X140186D02*
Y116601D01*
X138546Y114961D01*
X135266D01*
X133626Y116601D01*
Y124800D01*
X130347D02*
Y114961D01*
X123787D01*
X113948Y124800D02*
X120507D01*
Y114961D01*
X113948D01*
X120507Y119880D02*
X117228D01*
X100829Y124800D02*
Y118240D01*
X97549Y114961D01*
X94269Y118240D01*
Y124800D01*
X90989Y114961D02*
X87710D01*
X89350D01*
Y124800D01*
X90989Y123160D01*
X82790Y114961D02*
Y116601D01*
X81150D01*
Y114961D01*
X82790D01*
X74590Y123160D02*
X72951Y124800D01*
X69671D01*
X68031Y123160D01*
Y116601D01*
X69671Y114961D01*
X72951D01*
X74590Y116601D01*
Y123160D01*
X205252Y83396D02*
X206891Y85036D01*
X210171D01*
X211811Y83396D01*
Y81756D01*
X210171Y80116D01*
X206891D01*
X205252Y78477D01*
Y76837D01*
X206891Y75197D01*
X210171D01*
X211811Y76837D01*
X201972Y75197D02*
Y85036D01*
X198692Y81756D01*
X195412Y85036D01*
Y75197D01*
X192132D02*
Y81756D01*
X188853Y85036D01*
X185573Y81756D01*
Y75197D01*
Y80116D01*
X192132D01*
X182293Y75197D02*
Y85036D01*
X177373D01*
X175733Y83396D01*
Y80116D01*
X177373Y78477D01*
X182293D01*
X179013D02*
X175733Y75197D01*
X172454Y85036D02*
X165894D01*
X169174D01*
Y75197D01*
X216929Y71257D02*
Y61417D01*
X212010D01*
X210370Y63057D01*
Y64697D01*
X212010Y66337D01*
X216929D01*
X212010D01*
X210370Y67977D01*
Y69617D01*
X212010Y71257D01*
X216929D01*
X207090Y61417D02*
Y67977D01*
X203810Y71257D01*
X200530Y67977D01*
Y61417D01*
Y66337D01*
X207090D01*
X197250Y71257D02*
X190691D01*
X193971D01*
Y61417D01*
X187411Y71257D02*
X180851D01*
X184131D01*
Y61417D01*
X171012Y71257D02*
X177572D01*
Y61417D01*
X171012D01*
X177572Y66337D02*
X174292D01*
X167732Y61417D02*
Y71257D01*
X162813D01*
X161173Y69617D01*
Y66337D01*
X162813Y64697D01*
X167732D01*
X164453D02*
X161173Y61417D01*
M02*
